<?xml version="1.0" encoding="UTF-8" standalone="no"?>
<!DOCTYPE svg PUBLIC "-//W3C//DTD SVG 1.1//EN" "http://www.w3.org/Graphics/SVG/1.1/DTD/svg11.dtd">
<svg xmlns="http://www.w3.org/2000/svg" version="1.1" viewBox="0.00 0.00 684.00 365.00">
<g stroke-width="2.00" fill="none" stroke-linecap="butt">
<path stroke="#c7ecfc" vector-effect="non-scaling-stroke" d="
  M 436.56 99.08
  C 432.14 95.00 428.98 90.06 424.81 86.12
  C 421.08 82.60 417.33 79.04 413.41 75.72
  Q 400.78 65.06 388.00 58.10
  Q 375.79 51.46 368.06 48.40
  Q 343.59 38.72 318.18 36.48
  Q 311.37 35.87 289.74 36.41
  C 282.53 36.58 275.26 38.72 268.16 39.99
  C 258.26 41.76 248.92 44.74 239.46 48.56
  C 234.03 50.75 228.67 53.83 223.27 56.31
  C 220.55 57.57 217.91 59.29 215.30 60.86
  Q 212.45 62.57 209.39 64.77
  Q 200.04 71.51 194.83 76.04
  Q 182.28 86.96 171.58 101.18
  Q 169.69 103.68 168.15 106.57
  A 0.95 0.94 -77.1 0 0 169.02 107.96
  Q 180.80 107.44 193.13 107.65
  Q 215.25 108.02 243.54 107.52
  C 245.81 107.48 248.01 107.05 249.57 105.24
  Q 255.25 98.66 259.49 95.89
  C 266.28 91.46 272.60 86.53 279.68 82.90
  Q 288.14 78.57 296.67 75.22
  Q 303.64 72.47 313.15 70.05
  C 318.97 68.56 324.75 68.10 330.63 67.25
  Q 341.15 65.74 358.04 66.84
  Q 360.48 67.00 363.01 67.45
  C 366.88 68.14 370.71 68.31 374.67 69.26
  Q 386.32 72.05 395.70 75.96
  C 409.29 81.62 423.83 89.09 434.95 98.88
  Q 435.55 99.40 436.30 99.58
  Q 437.37 99.83 436.56 99.08"
/>
<path stroke="#8ca3cd" vector-effect="non-scaling-stroke" d="
  M 370.7347 116.7298
  A 28.66 26.42 -1.1 0 0 341.5728 90.8649
  A 28.66 26.42 -1.1 0 0 313.4253 117.8302
  A 28.66 26.42 -1.1 0 0 342.5872 143.6951
  A 28.66 26.42 -1.1 0 0 370.7347 116.7298"
/>
<path stroke="#8ca3cd" vector-effect="non-scaling-stroke" d="
  M 445.56 183.27
  C 450.18 181.35 455.25 179.71 459.49 177.32
  C 464.75 174.35 470.15 171.48 475.29 168.11
  Q 501.49 150.92 518.87 124.49
  A 0.66 0.66 0.0 0 0 518.31 123.46
  Q 480.79 123.67 442.00 123.73
  Q 440.54 123.73 439.13 123.97
  A 1.00 0.97 -74.5 0 0 438.52 124.33
  Q 435.64 127.98 431.42 131.71
  Q 424.50 137.82 416.90 142.61
  Q 380.24 165.71 337.78 164.93
  C 330.24 164.79 322.69 163.51 315.22 162.29
  C 300.99 159.96 288.42 154.56 275.64 148.03
  C 266.21 143.21 257.06 136.68 248.83 130.13
  Q 246.22 128.05 248.36 130.61
  Q 254.32 137.72 260.32 143.81
  Q 293.50 177.42 340.19 190.02
  Q 350.56 192.82 359.83 193.62
  Q 366.10 194.17 372.14 194.75
  C 378.73 195.38 385.22 195.47 391.99 194.97
  Q 399.92 194.38 406.18 193.55
  Q 427.62 190.70 445.56 183.27"
/>
<path stroke="#8ca3cd" vector-effect="non-scaling-stroke" d="
  M 305.5977 260.0578
  A 37.54 32.08 126.6 0 0 353.7344 249.0469
  A 37.54 32.08 126.6 0 0 350.3623 199.7822
  A 37.54 32.08 126.6 0 0 302.2256 210.7931
  A 37.54 32.08 126.6 0 0 305.5977 260.0578"
/>
<path stroke="#8ca3cd" vector-effect="non-scaling-stroke" d="
  M 490.2963 200.1073
  A 11.74 10.20 -22.5 0 0 475.5466 195.1764
  A 11.74 10.20 -22.5 0 0 468.6037 209.0927
  A 11.74 10.20 -22.5 0 0 483.3534 214.0236
  A 11.74 10.20 -22.5 0 0 490.2963 200.1073"
/>
<path stroke="#8ca3cd" vector-effect="non-scaling-stroke" d="
  M 629.70 256.56
  C 631.80 265.93 650.26 264.90 657.24 264.02
  Q 667.16 262.76 673.11 256.70
  C 679.19 250.53 679.31 239.63 670.08 235.85
  Q 665.02 233.77 659.54 231.33
  C 652.81 228.33 656.96 219.70 663.63 221.38
  A 1.97 1.96 8.3 0 1 665.12 223.37
  C 664.89 228.80 665.73 231.88 671.85 232.27
  C 676.30 232.56 678.79 228.37 676.28 224.58
  Q 674.19 221.44 669.50 220.45
  C 659.59 218.35 648.25 218.97 639.96 225.53
  Q 633.02 231.03 635.19 240.33
  C 636.43 245.66 645.93 249.46 650.82 251.02
  C 655.30 252.45 657.22 257.75 653.61 261.15
  C 651.06 263.55 647.57 263.12 644.47 262.29
  A 1.79 1.78 10.9 0 1 643.15 260.36
  C 643.42 258.04 644.10 254.10 642.28 252.30
  Q 638.70 248.78 632.67 250.42
  Q 632.03 250.59 632.00 249.92
  L 631.97 248.93
  Q 631.94 248.12 631.28 248.58
  Q 630.97 248.80 630.82 249.16
  Q 629.14 253.00 626.20 255.50
  A 2.14 2.14 0.0 0 1 623.32 255.39
  Q 621.70 253.79 622.12 251.61
  Q 627.54 223.25 632.60 195.02
  A 0.68 0.68 0.0 0 0 631.71 194.26
  Q 625.68 196.29 619.16 197.98
  C 614.54 199.18 609.55 198.87 604.79 199.29
  A 0.71 0.71 0.0 0 0 604.18 200.21
  Q 604.35 200.75 604.94 200.82
  Q 611.96 201.68 610.73 208.54
  Q 607.14 228.56 603.11 248.01
  Q 602.39 251.51 602.56 254.84
  C 602.84 260.33 607.16 264.09 612.79 264.30
  Q 622.58 264.67 628.52 256.33
  Q 629.38 255.12 629.70 256.56"
/>
<path stroke="#8ca3cd" vector-effect="non-scaling-stroke" d="
  M 429.10 223.83
  Q 428.78 226.06 428.24 228.20
  Q 425.29 239.87 423.79 250.89
  C 422.82 258.06 426.34 262.54 433.37 263.76
  Q 440.14 264.95 446.05 263.72
  Q 456.03 261.65 458.93 250.95
  Q 459.17 250.05 458.32 249.72
  A 0.81 0.81 0.0 0 0 457.28 250.14
  C 455.62 253.87 451.96 261.98 446.47 260.43
  C 441.66 259.06 443.11 251.82 443.87 247.96
  Q 446.16 236.33 448.44 224.41
  A 1.60 1.60 0.0 0 1 449.93 223.12
  C 452.44 223.00 455.90 222.46 458.10 223.86
  Q 459.94 225.03 462.37 225.54
  A 2.33 2.32 -13.7 0 1 463.66 226.32
  Q 465.46 228.51 464.82 231.53
  Q 462.80 241.03 461.00 250.73
  Q 459.94 256.40 463.31 260.93
  C 466.96 265.85 476.14 264.70 480.54 262.38
  Q 484.11 260.49 487.55 255.89
  C 489.04 253.90 489.76 251.49 490.92 249.31
  Q 491.29 248.60 491.56 249.35
  Q 491.79 249.99 491.87 250.67
  C 492.36 254.71 496.04 259.04 499.25 261.35
  Q 502.83 263.92 507.85 264.40
  C 520.33 265.58 528.83 259.43 536.15 250.03
  Q 537.38 248.46 537.79 246.68
  Q 538.28 244.54 536.95 246.27
  Q 534.74 249.13 531.39 251.65
  C 527.34 254.69 520.46 255.48 516.15 252.40
  C 508.53 246.96 508.29 235.94 512.88 228.59
  C 515.60 224.24 519.36 220.36 525.00 221.51
  A 1.12 1.12 0.0 0 1 525.52 223.44
  C 522.07 226.52 518.49 229.85 520.50 234.95
  C 525.03 246.44 545.26 236.63 537.14 224.99
  C 534.52 221.24 528.76 219.61 524.46 219.41
  C 506.84 218.61 491.00 228.18 490.99 247.26
  Q 490.99 247.76 490.66 248.14
  C 488.60 250.59 487.23 253.98 484.33 255.58
  A 2.09 2.08 68.4 0 1 481.31 254.27
  Q 480.75 252.08 481.18 249.86
  Q 484.05 235.00 487.20 220.20
  Q 487.45 218.98 486.24 219.26
  Q 479.92 220.69 473.88 222.23
  C 469.73 223.30 465.81 222.97 461.67 223.02
  Q 460.82 223.03 460.88 222.18
  Q 460.92 221.69 460.65 221.28
  Q 460.43 220.95 460.02 220.94
  L 449.98 220.86
  Q 449.33 220.85 449.43 220.21
  Q 450.94 210.25 452.84 200.25
  Q 453.08 199.01 453.02 197.56
  A 0.68 0.68 0.0 0 0 452.21 196.91
  C 451.60 197.02 451.12 197.52 450.86 198.07
  C 445.46 209.58 436.59 221.51 422.58 221.00
  A 0.89 0.89 0.0 0 0 421.66 222.01
  Q 421.77 222.82 423.05 223.13
  A 0.37 0.18 -19.3 0 0 423.14 223.14
  L 428.48 223.12
  Q 429.21 223.11 429.10 223.83"
/>
<path stroke="#8ca3cd" vector-effect="non-scaling-stroke" d="
  M 11.01 270.33
  Q 13.58 269.82 16.08 270.46
  Q 23.05 272.27 28.76 272.59
  C 45.19 273.52 61.68 264.62 65.41 247.39
  C 66.94 240.31 64.68 233.90 58.68 229.61
  Q 53.92 226.20 49.68 224.31
  Q 44.88 222.18 40.38 218.84
  C 38.59 217.52 37.84 215.69 37.73 213.52
  C 37.30 204.88 46.70 201.70 53.15 205.46
  C 59.75 209.30 61.54 216.61 62.76 223.99
  Q 63.20 226.66 64.16 224.13
  Q 64.42 223.44 64.50 222.72
  Q 65.79 211.20 66.77 199.79
  A 0.53 0.53 0.0 0 0 65.94 199.32
  C 64.63 200.23 64.15 201.68 62.65 202.48
  Q 60.28 203.75 57.78 203.33
  Q 48.97 201.84 44.98 201.58
  C 32.59 200.77 18.39 207.37 14.29 219.47
  Q 8.96 235.23 23.28 242.90
  Q 30.05 246.52 35.59 250.23
  C 39.91 253.12 42.52 258.70 39.81 263.69
  C 36.04 270.64 28.84 272.92 21.87 268.63
  C 16.31 265.21 12.89 258.43 11.46 252.25
  C 10.77 249.24 10.74 245.90 9.89 242.96
  Q 9.65 242.15 9.38 242.95
  Q 8.33 246.08 8.07 249.39
  Q 7.28 259.77 6.20 271.04
  Q 5.76 275.66 8.85 272.20
  C 9.48 271.49 9.98 270.54 11.01 270.33"
/>
<path stroke="#8ca3cd" vector-effect="non-scaling-stroke" d="
  M 388.82 225.96
  Q 388.94 223.44 389.85 220.88
  A 1.04 1.04 0.0 0 0 388.49 219.57
  Q 376.66 224.29 363.41 223.97
  A 0.25 0.24 -84.2 0 0 363.17 224.17
  L 363.10 224.48
  A 0.59 0.58 9.6 0 0 363.61 225.19
  Q 369.99 225.78 368.94 232.24
  Q 365.60 252.72 361.69 272.24
  C 361.12 275.07 359.40 281.01 356.23 281.33
  Q 353.99 281.55 351.77 281.83
  A 0.33 0.33 0.0 0 0 351.50 282.26
  L 351.60 282.56
  A 0.99 0.99 0.0 0 0 352.54 283.23
  L 387.22 283.25
  Q 387.83 283.25 387.89 282.64
  L 387.92 282.28
  A 0.40 0.39 5.8 0 0 387.56 281.85
  C 383.76 281.51 379.94 281.15 380.40 276.12
  Q 381.10 268.45 382.85 261.05
  A 0.53 0.52 35.2 0 1 383.80 260.89
  C 385.21 263.03 387.36 263.95 389.89 264.09
  C 401.41 264.72 411.61 256.71 415.92 246.28
  C 419.58 237.40 419.12 226.08 409.66 221.11
  Q 403.95 218.11 396.88 220.13
  C 393.28 221.16 391.47 223.28 389.33 226.14
  Q 388.78 226.88 388.82 225.96"
/>
<path stroke="#8ca3cd" vector-effect="non-scaling-stroke" d="
  M 571.80 256.50
  C 572.70 259.95 575.09 263.47 578.89 264.02
  C 588.65 265.45 593.96 261.48 598.98 254.13
  Q 600.41 252.02 601.02 249.85
  Q 601.19 249.25 600.94 248.68
  Q 600.63 247.95 600.27 248.66
  C 599.02 251.18 597.12 254.31 594.65 255.86
  A 1.13 1.10 38.3 0 1 593.69 255.96
  Q 590.34 254.72 591.09 251.26
  Q 594.28 236.60 596.79 221.68
  A 0.79 0.79 0.0 0 0 596.01 220.76
  L 578.79 220.77
  A 0.99 0.99 0.0 0 0 577.82 221.58
  Q 577.58 222.99 577.14 224.23
  Q 576.67 225.58 576.13 224.25
  C 574.21 219.53 568.88 218.54 564.28 219.65
  Q 552.78 222.45 545.63 233.09
  Q 540.49 240.74 541.77 250.82
  Q 542.98 260.38 551.82 263.56
  Q 556.19 265.14 562.81 263.62
  C 566.49 262.77 568.95 259.58 570.58 256.36
  Q 571.36 254.82 571.80 256.50"
/>
<path stroke="#8ca3cd" vector-effect="non-scaling-stroke" d="
  M 105.90 231.58
  C 105.34 230.86 105.12 229.98 104.44 229.30
  C 101.04 225.88 95.83 226.12 91.54 227.63
  Q 77.19 232.65 72.23 247.26
  C 68.46 258.39 73.75 272.25 87.26 271.71
  Q 96.72 271.32 100.26 263.81
  Q 101.13 261.95 101.64 263.95
  Q 103.73 272.26 113.03 271.69
  Q 122.45 271.12 127.87 262.96
  Q 130.07 259.65 131.06 255.77
  Q 131.11 255.53 130.88 255.51
  L 130.59 255.48
  Q 129.94 255.41 129.69 256.02
  Q 127.43 261.45 124.32 262.83
  A 2.33 2.33 0.0 0 1 121.05 260.89
  Q 120.88 258.70 121.24 256.63
  Q 123.51 243.67 126.63 229.99
  Q 127.06 228.08 125.11 228.04
  Q 117.22 227.88 109.50 228.05
  Q 107.10 228.10 107.15 231.14
  Q 107.18 233.22 105.90 231.58"
/>
<path stroke="#8ca3cd" vector-effect="non-scaling-stroke" d="
  M 216.00 236.98
  Q 216.36 232.59 218.01 227.87
  A 0.55 0.54 1.4 0 0 217.34 227.17
  C 212.77 228.54 208.08 229.90 203.20 230.04
  Q 197.59 230.19 191.56 230.70
  Q 191.07 230.75 191.06 231.23
  L 191.05 231.57
  Q 191.04 231.71 191.18 231.73
  C 194.52 232.29 197.17 233.36 196.58 237.39
  Q 194.31 253.00 190.81 268.83
  A 1.77 1.77 0.0 0 0 192.57 270.98
  L 208.81 270.67
  A 1.25 1.25 0.0 0 0 210.02 269.68
  Q 212.02 260.66 213.43 250.79
  C 213.93 247.33 214.90 243.88 216.28 240.72
  C 217.34 238.26 220.43 234.44 223.49 236.69
  C 224.76 237.62 225.03 239.66 224.68 241.04
  Q 222.06 251.52 221.10 258.76
  C 219.23 272.86 235.34 274.53 243.46 267.55
  Q 248.54 263.19 251.00 256.68
  Q 251.21 256.14 250.93 255.63
  L 250.80 255.40
  A 0.31 0.31 0.0 0 0 250.26 255.40
  C 248.84 258.01 247.02 261.45 244.17 262.66
  A 2.33 2.32 -16.9 0 1 240.97 260.96
  Q 240.69 259.51 241.01 257.95
  Q 242.81 249.05 244.65 239.92
  C 245.27 236.84 246.11 232.51 243.74 229.88
  Q 241.28 227.16 238.55 226.74
  C 230.20 225.46 221.60 230.61 216.72 237.25
  Q 215.88 238.41 216.00 236.98"
/>
<path stroke="#8ca3cd" vector-effect="non-scaling-stroke" d="
  M 157.26 236.88
  Q 155.32 239.48 156.05 236.32
  Q 156.94 232.49 157.99 228.64
  Q 158.12 228.17 157.96 227.72
  Q 157.70 226.99 156.97 227.24
  Q 144.61 231.48 132.11 230.60
  A 0.58 0.58 0.0 0 0 131.49 231.09
  L 131.45 231.35
  Q 131.38 231.77 131.81 231.84
  C 135.11 232.35 137.63 234.11 136.92 237.93
  Q 135.70 244.53 134.56 250.93
  C 133.43 257.33 131.60 263.56 130.97 270.02
  A 0.75 0.74 -87.6 0 0 131.72 270.84
  L 148.58 270.68
  A 1.80 1.79 -84.9 0 0 150.33 269.21
  Q 152.42 258.12 154.57 246.34
  Q 155.35 242.02 157.81 238.61
  C 161.27 233.81 166.14 235.97 164.70 241.71
  Q 162.85 249.08 161.75 256.00
  C 160.64 263.03 161.42 270.37 170.21 271.28
  Q 180.02 272.29 186.52 264.61
  Q 190.20 260.25 191.22 255.93
  Q 191.32 255.50 190.90 255.36
  L 190.65 255.27
  Q 190.52 255.22 190.47 255.34
  C 189.06 258.31 185.92 264.70 181.86 262.32
  Q 181.41 262.05 181.30 261.54
  Q 180.85 259.43 181.15 258.00
  C 182.84 249.96 184.36 242.09 185.50 234.33
  C 186.01 230.81 181.94 227.47 179.04 227.06
  C 170.49 225.84 162.45 229.92 157.26 236.88"
/>
<path stroke="#de92ac" vector-effect="non-scaling-stroke" d="
  M 406.25 313.72
  A 0.48 0.47 -39.8 0 1 406.32 312.98
  Q 412.60 308.79 412.17 301.94
  C 411.81 296.15 404.96 295.75 400.53 295.86
  C 398.07 295.93 396.13 297.51 394.05 298.61
  Q 391.72 299.84 392.71 302.36
  Q 392.96 303.00 393.65 303.07
  L 395.18 303.22
  Q 395.83 303.28 395.66 303.92
  L 388.87 329.15
  A 2.34 2.33 20.7 0 0 390.10 331.85
  C 395.69 334.59 405.65 331.47 408.80 326.04
  Q 412.50 319.66 406.25 313.72"
/>
<path stroke="#de92ac" vector-effect="non-scaling-stroke" d="
  M 205.55 326.82
  Q 203.12 312.25 208.31 298.03
  Q 208.77 296.79 207.44 296.85
  L 205.01 296.96
  Q 203.81 297.02 203.45 298.17
  Q 199.57 310.42 201.11 322.94
  Q 201.63 327.25 203.58 331.27
  Q 204.54 333.24 206.65 332.90
  A 1.38 1.38 0.0 0 0 207.56 332.31
  Q 211.00 327.15 212.81 321.83
  Q 216.12 312.04 219.41 303.62
  Q 220.32 301.29 221.75 299.01
  A 0.88 0.87 -54.8 0 0 221.56 297.87
  L 219.57 296.27
  Q 218.99 295.81 218.45 296.32
  Q 216.87 297.82 216.21 299.59
  Q 211.78 311.53 208.76 321.82
  Q 208.01 324.38 207.02 326.97
  Q 206.02 329.60 205.55 326.82"
/>
<path stroke="#de92ac" vector-effect="non-scaling-stroke" d="
  M 313.01 315.72
  Q 313.02 311.56 313.50 307.04
  C 313.85 303.74 313.70 300.44 313.40 297.16
  A 0.70 0.70 0.0 0 0 312.79 296.53
  C 310.31 296.20 308.48 297.14 307.58 299.61
  C 304.25 308.81 302.33 318.24 299.65 327.36
  Q 299.58 327.60 299.39 327.76
  Q 299.04 328.05 298.54 327.83
  A 0.65 0.65 0.0 0 1 298.17 327.26
  Q 298.10 322.37 300.01 317.45
  C 300.27 316.77 300.19 315.86 300.20 315.13
  A 0.39 0.39 0.0 0 0 299.54 314.85
  Q 293.63 320.65 295.04 328.83
  C 296.12 335.05 303.28 332.98 304.26 327.91
  Q 306.50 316.43 309.88 305.05
  Q 309.94 304.85 310.14 304.90
  L 310.39 304.95
  Q 310.44 304.96 310.43 305.01
  Q 308.87 314.25 309.45 322.45
  Q 309.59 324.30 310.43 326.11
  Q 310.69 326.67 311.28 326.89
  C 314.71 328.15 314.92 323.75 315.28 321.78
  Q 315.51 320.52 316.01 319.43
  Q 318.17 314.70 320.09 309.74
  C 320.62 308.40 321.57 307.20 322.22 305.89
  Q 322.25 305.83 322.30 305.86
  L 322.55 305.97
  Q 322.68 306.02 322.64 306.16
  Q 320.54 313.59 318.90 321.02
  C 318.23 324.08 317.12 329.34 318.87 331.58
  C 319.98 332.98 323.01 332.53 324.50 332.21
  A 0.92 0.91 55.0 0 0 324.79 330.54
  Q 321.94 328.76 322.64 324.98
  C 324.03 317.54 325.25 310.16 326.81 302.92
  Q 327.39 300.24 327.42 297.36
  A 0.86 0.85 3.3 0 0 326.65 296.50
  C 324.66 296.29 322.82 296.79 321.76 298.64
  C 318.63 304.12 316.30 310.19 313.65 315.86
  Q 313.01 317.22 313.01 315.72"
/>
<path stroke="#de92ac" vector-effect="non-scaling-stroke" d="
  M 363.58 322.61
  C 365.27 325.92 367.88 327.20 371.50 325.72
  Q 377.74 323.17 381.41 317.11
  Q 381.89 316.33 380.83 316.07
  A 1.04 1.03 -58.9 0 0 379.89 316.31
  Q 376.60 319.30 373.29 321.98
  Q 371.51 323.42 368.84 323.01
  Q 368.29 322.93 367.89 322.58
  Q 366.13 321.07 368.10 319.84
  C 371.13 317.95 375.98 314.51 375.13 310.40
  A 1.77 1.76 85.4 0 0 373.48 308.99
  C 368.09 308.74 365.65 312.44 363.77 316.77
  C 362.56 319.55 360.37 321.61 357.95 323.31
  A 0.60 0.60 0.0 0 1 357.01 322.84
  C 356.92 320.54 357.24 318.02 358.39 316.00
  C 361.64 310.27 364.16 304.75 363.16 298.00
  Q 363.08 297.45 362.54 297.33
  Q 359.80 296.68 359.06 299.25
  Q 357.52 304.57 356.35 309.62
  A 0.82 0.82 0.0 0 1 355.24 310.19
  C 354.35 309.81 353.49 309.11 352.48 309.29
  Q 347.67 310.14 346.10 313.84
  C 344.65 317.22 343.62 320.43 340.46 322.77
  Q 338.98 323.87 339.06 322.03
  Q 339.20 318.83 340.05 315.64
  C 340.64 313.46 339.69 311.68 338.73 309.81
  Q 338.49 309.33 337.97 309.18
  C 331.98 307.52 327.06 316.70 326.70 321.34
  C 326.40 325.36 328.87 327.18 332.76 325.22
  Q 334.07 324.56 335.32 323.65
  Q 335.75 323.34 336.02 323.80
  C 338.39 327.93 341.46 325.50 343.67 323.03
  A 0.57 0.57 0.0 0 1 344.63 323.22
  Q 345.95 326.90 349.63 325.57
  C 350.84 325.13 351.63 324.04 352.51 323.15
  A 0.78 0.78 0.0 0 1 353.81 323.47
  L 354.26 324.94
  Q 354.47 325.63 355.16 325.85
  C 358.21 326.80 360.61 324.19 362.65 322.43
  Q 363.24 321.92 363.58 322.61"
/>
<path stroke="#de92ac" vector-effect="non-scaling-stroke" d="
  M 474.39 322.82
  Q 475.58 320.23 477.24 317.36
  C 478.79 314.69 477.77 311.37 474.22 311.64
  Q 473.36 311.71 473.61 310.88
  Q 474.08 309.33 473.49 307.99
  A 2.06 2.06 0.0 0 0 470.41 307.15
  Q 468.30 308.66 468.10 311.46
  Q 467.60 318.17 461.55 322.03
  Q 459.21 323.53 456.24 322.87
  Q 455.96 322.81 455.77 322.60
  Q 454.32 321.02 456.06 319.79
  Q 461.13 316.19 462.35 314.12
  C 463.80 311.67 463.01 308.43 459.67 308.94
  Q 455.78 309.54 453.31 313.28
  C 451.85 315.49 451.20 318.00 449.40 320.04
  Q 447.89 321.74 445.97 322.98
  A 1.65 1.65 0.0 0 1 443.66 322.43
  C 442.96 321.24 443.13 319.45 443.72 318.23
  Q 446.21 313.06 447.96 307.00
  A 1.39 1.39 0.0 0 1 449.33 306.00
  L 455.08 306.15
  Q 455.60 306.17 455.99 305.81
  Q 456.48 305.36 456.29 304.77
  Q 456.12 304.23 455.58 304.04
  Q 452.46 303.01 449.69 302.93
  Q 449.19 302.92 449.20 302.42
  L 449.24 298.57
  Q 449.25 297.91 448.60 297.78
  C 444.93 297.07 444.58 300.84 443.58 303.21
  Q 443.30 303.89 442.59 303.67
  Q 440.37 302.95 437.88 302.94
  A 0.67 0.67 0.0 0 1 437.21 302.24
  L 437.35 298.78
  A 1.17 1.16 89.6 0 0 436.13 297.57
  C 432.58 297.75 433.22 300.10 432.17 302.53
  A 1.58 1.56 -81.5 0 1 430.90 303.48
  Q 428.52 303.76 425.97 303.65
  Q 425.43 303.62 425.05 303.99
  Q 424.62 304.42 424.73 305.06
  Q 424.83 305.66 425.39 305.90
  Q 427.95 307.00 430.54 307.04
  A 0.53 0.53 0.0 0 1 431.05 307.69
  Q 430.41 310.51 429.90 313.15
  C 429.15 316.99 425.97 319.89 423.07 321.99
  Q 421.17 323.37 418.54 322.87
  Q 418.27 322.82 418.02 322.72
  Q 415.73 321.71 417.61 320.07
  C 420.27 317.74 424.50 315.58 424.68 311.69
  C 424.90 307.05 418.75 309.17 417.08 310.76
  C 413.33 314.33 410.86 319.66 414.12 324.49
  C 416.04 327.32 420.63 326.52 422.92 324.82
  Q 425.30 323.06 427.70 321.31
  Q 428.35 320.84 428.54 321.62
  Q 428.84 322.91 429.40 324.19
  C 430.67 327.04 435.09 326.37 436.77 324.40
  Q 437.96 322.99 439.17 321.53
  A 0.56 0.56 0.0 0 1 440.13 321.68
  C 440.74 323.24 441.41 325.54 443.24 325.98
  C 445.99 326.64 448.34 324.95 449.94 322.86
  A 0.90 0.90 0.0 0 1 451.46 323.01
  C 453.67 327.60 458.03 326.56 461.63 324.67
  Q 462.22 324.36 462.64 324.89
  L 463.03 325.40
  A 1.07 1.06 41.6 0 0 464.79 325.30
  L 470.68 315.36
  A 1.32 1.30 20.2 0 1 472.04 314.74
  L 473.81 315.05
  Q 474.82 315.23 474.23 316.06
  C 472.28 318.85 468.75 323.80 473.01 326.27
  C 477.18 328.67 483.44 319.68 484.86 316.41
  A 0.54 0.53 -60.9 0 0 484.68 315.75
  Q 484.37 315.53 484.03 315.70
  Q 482.94 316.23 482.33 317.31
  Q 479.21 322.82 474.93 323.52
  Q 474.00 323.67 474.39 322.82"
/>
<path stroke="#de92ac" vector-effect="non-scaling-stroke" d="
  M 249.0487 304.3907
  A 2.50 2.01 121.1 0 0 252.0611 303.2882
  A 2.50 2.01 121.1 0 0 251.6313 300.1093
  A 2.50 2.01 121.1 0 0 248.6189 301.2118
  A 2.50 2.01 121.1 0 0 249.0487 304.3907"
/>
<path stroke="#de92ac" vector-effect="non-scaling-stroke" d="
  M 224.3917 304.3931
  A 2.57 1.80 124.3 0 0 227.3270 303.2843
  A 2.57 1.80 124.3 0 0 227.2883 300.1469
  A 2.57 1.80 124.3 0 0 224.3530 301.2557
  A 2.57 1.80 124.3 0 0 224.3917 304.3931"
/>
<path stroke="#de92ac" vector-effect="non-scaling-stroke" d="
  M 235.19 315.71
  C 236.13 317.82 238.23 321.39 236.66 323.59
  A 0.74 0.74 0.0 0 1 235.41 323.51
  L 234.05 320.94
  Q 233.18 319.27 231.99 320.73
  Q 229.33 323.97 232.98 326.32
  C 236.07 328.30 240.23 323.92 240.67 321.48
  C 241.34 317.72 236.43 313.49 238.74 310.38
  A 1.70 1.70 0.0 0 0 237.54 307.67
  C 234.91 307.41 233.06 310.14 232.82 312.50
  C 232.49 315.72 228.13 319.61 225.46 322.05
  Q 224.67 322.78 223.66 323.00
  A 0.73 0.73 0.0 0 1 222.78 322.18
  Q 223.63 316.34 226.01 311.22
  Q 226.76 309.61 224.98 309.76
  L 223.48 309.89
  Q 221.83 310.04 221.27 311.59
  Q 219.59 316.21 219.88 322.52
  C 220.01 325.30 222.99 326.84 225.24 325.26
  Q 229.91 321.99 234.24 315.62
  Q 234.79 314.81 235.19 315.71"
/>
<path stroke="#de92ac" vector-effect="non-scaling-stroke" d="
  M 282.00 322.12
  Q 282.78 318.54 283.75 314.86
  C 284.76 311.04 282.08 308.41 278.45 310.26
  Q 276.93 311.03 275.52 310.18
  A 2.36 2.36 0.0 0 0 272.04 311.57
  Q 271.10 314.90 266.93 316.01
  Q 266.26 316.19 266.34 315.50
  C 267.03 309.21 259.58 307.09 256.38 312.11
  Q 254.69 314.77 253.67 317.60
  Q 252.80 320.00 250.76 321.53
  Q 249.90 322.17 249.02 322.60
  Q 246.89 323.64 247.31 321.31
  Q 248.22 316.28 250.26 311.18
  Q 250.85 309.69 249.25 309.81
  L 247.80 309.91
  Q 246.47 310.01 246.06 311.29
  Q 244.57 315.90 244.00 320.70
  C 243.61 323.96 246.17 327.46 249.71 325.23
  Q 251.54 324.08 253.14 322.45
  A 0.63 0.63 0.0 0 1 254.20 322.73
  C 254.65 324.44 255.65 326.00 257.61 326.11
  C 261.90 326.34 264.72 323.82 266.04 319.93
  A 2.59 2.56 88.0 0 1 267.45 318.40
  L 270.07 317.25
  Q 270.97 316.86 270.72 317.81
  L 268.84 324.96
  Q 268.55 326.07 269.69 326.03
  L 270.63 326.00
  A 2.07 2.06 -82.2 0 0 272.53 324.55
  C 273.63 321.07 274.69 315.78 277.80 313.90
  Q 280.26 312.40 279.62 315.21
  Q 278.82 318.73 277.97 322.48
  C 277.37 325.09 279.98 327.60 282.45 326.20
  Q 288.49 322.78 290.87 316.38
  A 0.79 0.78 -66.9 0 0 290.48 315.40
  L 290.22 315.27
  A 0.52 0.51 -62.1 0 0 289.55 315.48
  Q 286.73 320.39 283.15 322.89
  Q 281.59 323.98 282.00 322.12"
/>
<path stroke="#8ca3cd" vector-effect="non-scaling-stroke" d="
  M 367.08 114.78
  A 12.42 12.42 0.0 0 0 354.66 102.36
  A 12.42 12.42 0.0 0 0 342.24 114.78
  A 12.42 12.42 0.0 0 0 354.66 127.20
  A 12.42 12.42 0.0 0 0 367.08 114.78"
/>
<path stroke="#8ca3cd" vector-effect="non-scaling-stroke" d="
  M 320.66 263.46
  Q 325.77 264.06 327.59 259.61
  C 328.25 258.03 329.03 256.45 329.34 254.75
  Q 333.75 230.22 338.51 204.78
  C 339.19 201.15 339.82 196.76 334.50 196.58
  C 328.29 196.37 326.89 201.91 326.11 206.83
  C 323.47 223.57 319.55 240.86 317.05 257.78
  C 316.67 260.34 317.76 263.12 320.66 263.46"
/>
<path stroke="#8ca3cd" vector-effect="non-scaling-stroke" d="
  M 388.89 231.27
  Q 383.88 244.82 383.91 256.47
  C 383.92 261.97 390.22 264.09 392.53 258.20
  Q 396.89 247.07 398.79 235.32
  Q 399.59 230.37 399.13 226.26
  Q 398.86 223.75 396.28 223.13
  C 392.49 222.20 389.89 228.58 388.89 231.27"
/>
<path stroke="#8ca3cd" vector-effect="non-scaling-stroke" d="
  M 572.73 222.38
  C 565.27 217.92 560.68 247.49 560.15 251.41
  Q 559.74 254.40 560.11 257.66
  C 560.49 261.03 564.02 261.37 566.17 259.39
  Q 568.78 257.00 569.99 253.60
  Q 574.88 239.80 575.64 228.00
  Q 575.88 224.26 572.73 222.38"
/>
<path stroke="#8ca3cd" vector-effect="non-scaling-stroke" d="
  M 96.51 232.69
  C 93.03 242.08 90.35 251.84 89.34 261.18
  C 89.01 264.23 90.81 270.52 95.29 267.04
  Q 99.35 263.89 101.21 256.83
  C 103.15 249.44 105.70 240.58 104.87 233.31
  C 104.35 228.76 98.13 228.32 96.51 232.69"
/>
<path stroke="#de92ac" vector-effect="non-scaling-stroke" d="
  M 400.59 300.93
  L 397.54 311.69
  A 0.43 0.43 0.0 0 0 397.98 312.23
  L 402.13 311.99
  Q 402.72 311.96 403.15 311.55
  Q 406.87 307.96 407.73 303.16
  Q 408.34 299.76 404.99 298.95
  L 404.29 298.77
  Q 401.40 298.07 400.59 300.93"
/>
<path stroke="#de92ac" vector-effect="non-scaling-stroke" d="
  M 404.43 323.92
  Q 406.15 320.29 404.86 317.22
  A 2.28 2.28 0.0 0 0 402.04 315.94
  Q 399.40 316.81 396.95 316.59
  A 0.61 0.61 0.0 0 0 396.30 317.06
  L 393.57 329.19
  A 0.68 0.67 -82.5 0 0 394.20 330.02
  Q 401.40 330.33 404.43 323.92"
/>
<path stroke="#de92ac" vector-effect="non-scaling-stroke" d="
  M 348.36 316.17
  A 1.56 1.56 0.0 0 0 348.14 316.71
  L 347.19 321.23
  A 1.56 1.56 0.0 0 0 349.73 322.74
  L 354.01 319.12
  A 1.56 1.56 0.0 0 0 354.53 317.62
  L 353.60 313.02
  A 1.56 1.56 0.0 0 0 350.77 312.48
  L 348.36 316.17"
/>
<path stroke="#de92ac" vector-effect="non-scaling-stroke" d="
  M 333.95 311.73
  L 330.35 321.91
  A 0.05 0.05 0.0 0 0 330.38 321.97
  L 330.43 321.99
  A 4.39 4.05 -70.5 0 0 335.72 319.20
  L 336.42 317.21
  A 4.39 4.05 -70.5 0 0 334.07 311.72
  L 334.02 311.69
  A 0.05 0.05 0.0 0 0 333.95 311.73"
/>
<path stroke="#de92ac" vector-effect="non-scaling-stroke" d="
  M 367.8768 316.7681
  A 3.06 1.00 128.7 0 0 370.5704 315.0052
  A 3.06 1.00 128.7 0 0 371.7032 311.9919
  A 3.06 1.00 128.7 0 0 369.0096 313.7548
  A 3.06 1.00 128.7 0 0 367.8768 316.7681"
/>
<path stroke="#de92ac" vector-effect="non-scaling-stroke" d="
  M 431.38 321.11
  A 1.66 1.66 0.0 0 0 434.01 322.91
  L 440.16 317.79
  A 1.66 1.66 0.0 0 0 440.71 316.91
  L 442.69 309.01
  A 1.66 1.66 0.0 0 0 441.45 306.99
  L 437.95 306.19
  A 1.66 1.66 0.0 0 0 436.00 307.29
  L 431.38 321.11"
/>
<path stroke="#de92ac" vector-effect="non-scaling-stroke" d="
  M 417.2193 316.6668
  A 3.08 0.90 127.4 0 0 419.8050 314.7666
  A 3.08 0.90 127.4 0 0 420.9607 311.7732
  A 3.08 0.90 127.4 0 0 418.3750 313.6734
  A 3.08 0.90 127.4 0 0 417.2193 316.6668"
/>
<path stroke="#de92ac" vector-effect="non-scaling-stroke" d="
  M 455.6417 316.8544
  A 3.11 0.90 125.1 0 0 458.1663 314.8275
  A 3.11 0.90 125.1 0 0 459.2183 311.7656
  A 3.11 0.90 125.1 0 0 456.6937 313.7925
  A 3.11 0.90 125.1 0 0 455.6417 316.8544"
/>
<path stroke="#de92ac" vector-effect="non-scaling-stroke" d="
  M 261.33 317.32
  A 1.12 1.12 0.0 0 0 263.05 316.30
  L 262.83 313.24
  A 1.12 1.12 0.0 0 0 262.25 312.34
  L 261.62 312.00
  A 1.12 1.12 0.0 0 0 260.09 312.49
  L 259.02 314.65
  A 1.12 1.12 0.0 0 0 259.42 316.09
  L 261.33 317.32"
/>
<path stroke="#de92ac" vector-effect="non-scaling-stroke" d="
  M 261.63 320.93
  L 257.72 318.63
  A 0.25 0.25 0.0 0 0 257.38 318.72
  L 257.30 318.86
  A 3.25 2.52 -59.6 0 0 257.82 322.94
  L 257.82 322.94
  A 3.25 2.52 -59.6 0 0 261.64 321.41
  L 261.72 321.27
  A 0.25 0.25 0.0 0 0 261.63 320.93"
/>
</g>
<path fill="#ffffff" d="
  M 0.00 0.00
  L 684.00 0.00
  L 684.00 365.00
  L 0.00 365.00
  L 0.00 0.00
  Z
  M 436.56 99.08
  C 432.14 95.00 428.98 90.06 424.81 86.12
  C 421.08 82.60 417.33 79.04 413.41 75.72
  Q 400.78 65.06 388.00 58.10
  Q 375.79 51.46 368.06 48.40
  Q 343.59 38.72 318.18 36.48
  Q 311.37 35.87 289.74 36.41
  C 282.53 36.58 275.26 38.72 268.16 39.99
  C 258.26 41.76 248.92 44.74 239.46 48.56
  C 234.03 50.75 228.67 53.83 223.27 56.31
  C 220.55 57.57 217.91 59.29 215.30 60.86
  Q 212.45 62.57 209.39 64.77
  Q 200.04 71.51 194.83 76.04
  Q 182.28 86.96 171.58 101.18
  Q 169.69 103.68 168.15 106.57
  A 0.95 0.94 -77.1 0 0 169.02 107.96
  Q 180.80 107.44 193.13 107.65
  Q 215.25 108.02 243.54 107.52
  C 245.81 107.48 248.01 107.05 249.57 105.24
  Q 255.25 98.66 259.49 95.89
  C 266.28 91.46 272.60 86.53 279.68 82.90
  Q 288.14 78.57 296.67 75.22
  Q 303.64 72.47 313.15 70.05
  C 318.97 68.56 324.75 68.10 330.63 67.25
  Q 341.15 65.74 358.04 66.84
  Q 360.48 67.00 363.01 67.45
  C 366.88 68.14 370.71 68.31 374.67 69.26
  Q 386.32 72.05 395.70 75.96
  C 409.29 81.62 423.83 89.09 434.95 98.88
  Q 435.55 99.40 436.30 99.58
  Q 437.37 99.83 436.56 99.08
  Z
  M 370.7347 116.7298
  A 28.66 26.42 -1.1 0 0 341.5728 90.8649
  A 28.66 26.42 -1.1 0 0 313.4253 117.8302
  A 28.66 26.42 -1.1 0 0 342.5872 143.6951
  A 28.66 26.42 -1.1 0 0 370.7347 116.7298
  Z
  M 445.56 183.27
  C 450.18 181.35 455.25 179.71 459.49 177.32
  C 464.75 174.35 470.15 171.48 475.29 168.11
  Q 501.49 150.92 518.87 124.49
  A 0.66 0.66 0.0 0 0 518.31 123.46
  Q 480.79 123.67 442.00 123.73
  Q 440.54 123.73 439.13 123.97
  A 1.00 0.97 -74.5 0 0 438.52 124.33
  Q 435.64 127.98 431.42 131.71
  Q 424.50 137.82 416.90 142.61
  Q 380.24 165.71 337.78 164.93
  C 330.24 164.79 322.69 163.51 315.22 162.29
  C 300.99 159.96 288.42 154.56 275.64 148.03
  C 266.21 143.21 257.06 136.68 248.83 130.13
  Q 246.22 128.05 248.36 130.61
  Q 254.32 137.72 260.32 143.81
  Q 293.50 177.42 340.19 190.02
  Q 350.56 192.82 359.83 193.62
  Q 366.10 194.17 372.14 194.75
  C 378.73 195.38 385.22 195.47 391.99 194.97
  Q 399.92 194.38 406.18 193.55
  Q 427.62 190.70 445.56 183.27
  Z
  M 305.5977 260.0578
  A 37.54 32.08 126.6 0 0 353.7344 249.0469
  A 37.54 32.08 126.6 0 0 350.3623 199.7822
  A 37.54 32.08 126.6 0 0 302.2256 210.7931
  A 37.54 32.08 126.6 0 0 305.5977 260.0578
  Z
  M 490.2963 200.1073
  A 11.74 10.20 -22.5 0 0 475.5466 195.1764
  A 11.74 10.20 -22.5 0 0 468.6037 209.0927
  A 11.74 10.20 -22.5 0 0 483.3534 214.0236
  A 11.74 10.20 -22.5 0 0 490.2963 200.1073
  Z
  M 629.70 256.56
  C 631.80 265.93 650.26 264.90 657.24 264.02
  Q 667.16 262.76 673.11 256.70
  C 679.19 250.53 679.31 239.63 670.08 235.85
  Q 665.02 233.77 659.54 231.33
  C 652.81 228.33 656.96 219.70 663.63 221.38
  A 1.97 1.96 8.3 0 1 665.12 223.37
  C 664.89 228.80 665.73 231.88 671.85 232.27
  C 676.30 232.56 678.79 228.37 676.28 224.58
  Q 674.19 221.44 669.50 220.45
  C 659.59 218.35 648.25 218.97 639.96 225.53
  Q 633.02 231.03 635.19 240.33
  C 636.43 245.66 645.93 249.46 650.82 251.02
  C 655.30 252.45 657.22 257.75 653.61 261.15
  C 651.06 263.55 647.57 263.12 644.47 262.29
  A 1.79 1.78 10.9 0 1 643.15 260.36
  C 643.42 258.04 644.10 254.10 642.28 252.30
  Q 638.70 248.78 632.67 250.42
  Q 632.03 250.59 632.00 249.92
  L 631.97 248.93
  Q 631.94 248.12 631.28 248.58
  Q 630.97 248.80 630.82 249.16
  Q 629.14 253.00 626.20 255.50
  A 2.14 2.14 0.0 0 1 623.32 255.39
  Q 621.70 253.79 622.12 251.61
  Q 627.54 223.25 632.60 195.02
  A 0.68 0.68 0.0 0 0 631.71 194.26
  Q 625.68 196.29 619.16 197.98
  C 614.54 199.18 609.55 198.87 604.79 199.29
  A 0.71 0.71 0.0 0 0 604.18 200.21
  Q 604.35 200.75 604.94 200.82
  Q 611.96 201.68 610.73 208.54
  Q 607.14 228.56 603.11 248.01
  Q 602.39 251.51 602.56 254.84
  C 602.84 260.33 607.16 264.09 612.79 264.30
  Q 622.58 264.67 628.52 256.33
  Q 629.38 255.12 629.70 256.56
  Z
  M 429.10 223.83
  Q 428.78 226.06 428.24 228.20
  Q 425.29 239.87 423.79 250.89
  C 422.82 258.06 426.34 262.54 433.37 263.76
  Q 440.14 264.95 446.05 263.72
  Q 456.03 261.65 458.93 250.95
  Q 459.17 250.05 458.32 249.72
  A 0.81 0.81 0.0 0 0 457.28 250.14
  C 455.62 253.87 451.96 261.98 446.47 260.43
  C 441.66 259.06 443.11 251.82 443.87 247.96
  Q 446.16 236.33 448.44 224.41
  A 1.60 1.60 0.0 0 1 449.93 223.12
  C 452.44 223.00 455.90 222.46 458.10 223.86
  Q 459.94 225.03 462.37 225.54
  A 2.33 2.32 -13.7 0 1 463.66 226.32
  Q 465.46 228.51 464.82 231.53
  Q 462.80 241.03 461.00 250.73
  Q 459.94 256.40 463.31 260.93
  C 466.96 265.85 476.14 264.70 480.54 262.38
  Q 484.11 260.49 487.55 255.89
  C 489.04 253.90 489.76 251.49 490.92 249.31
  Q 491.29 248.60 491.56 249.35
  Q 491.79 249.99 491.87 250.67
  C 492.36 254.71 496.04 259.04 499.25 261.35
  Q 502.83 263.92 507.85 264.40
  C 520.33 265.58 528.83 259.43 536.15 250.03
  Q 537.38 248.46 537.79 246.68
  Q 538.28 244.54 536.95 246.27
  Q 534.74 249.13 531.39 251.65
  C 527.34 254.69 520.46 255.48 516.15 252.40
  C 508.53 246.96 508.29 235.94 512.88 228.59
  C 515.60 224.24 519.36 220.36 525.00 221.51
  A 1.12 1.12 0.0 0 1 525.52 223.44
  C 522.07 226.52 518.49 229.85 520.50 234.95
  C 525.03 246.44 545.26 236.63 537.14 224.99
  C 534.52 221.24 528.76 219.61 524.46 219.41
  C 506.84 218.61 491.00 228.18 490.99 247.26
  Q 490.99 247.76 490.66 248.14
  C 488.60 250.59 487.23 253.98 484.33 255.58
  A 2.09 2.08 68.4 0 1 481.31 254.27
  Q 480.75 252.08 481.18 249.86
  Q 484.05 235.00 487.20 220.20
  Q 487.45 218.98 486.24 219.26
  Q 479.92 220.69 473.88 222.23
  C 469.73 223.30 465.81 222.97 461.67 223.02
  Q 460.82 223.03 460.88 222.18
  Q 460.92 221.69 460.65 221.28
  Q 460.43 220.95 460.02 220.94
  L 449.98 220.86
  Q 449.33 220.85 449.43 220.21
  Q 450.94 210.25 452.84 200.25
  Q 453.08 199.01 453.02 197.56
  A 0.68 0.68 0.0 0 0 452.21 196.91
  C 451.60 197.02 451.12 197.52 450.86 198.07
  C 445.46 209.58 436.59 221.51 422.58 221.00
  A 0.89 0.89 0.0 0 0 421.66 222.01
  Q 421.77 222.82 423.05 223.13
  A 0.37 0.18 -19.3 0 0 423.14 223.14
  L 428.48 223.12
  Q 429.21 223.11 429.10 223.83
  Z
  M 11.01 270.33
  Q 13.58 269.82 16.08 270.46
  Q 23.05 272.27 28.76 272.59
  C 45.19 273.52 61.68 264.62 65.41 247.39
  C 66.94 240.31 64.68 233.90 58.68 229.61
  Q 53.92 226.20 49.68 224.31
  Q 44.88 222.18 40.38 218.84
  C 38.59 217.52 37.84 215.69 37.73 213.52
  C 37.30 204.88 46.70 201.70 53.15 205.46
  C 59.75 209.30 61.54 216.61 62.76 223.99
  Q 63.20 226.66 64.16 224.13
  Q 64.42 223.44 64.50 222.72
  Q 65.79 211.20 66.77 199.79
  A 0.53 0.53 0.0 0 0 65.94 199.32
  C 64.63 200.23 64.15 201.68 62.65 202.48
  Q 60.28 203.75 57.78 203.33
  Q 48.97 201.84 44.98 201.58
  C 32.59 200.77 18.39 207.37 14.29 219.47
  Q 8.96 235.23 23.28 242.90
  Q 30.05 246.52 35.59 250.23
  C 39.91 253.12 42.52 258.70 39.81 263.69
  C 36.04 270.64 28.84 272.92 21.87 268.63
  C 16.31 265.21 12.89 258.43 11.46 252.25
  C 10.77 249.24 10.74 245.90 9.89 242.96
  Q 9.65 242.15 9.38 242.95
  Q 8.33 246.08 8.07 249.39
  Q 7.28 259.77 6.20 271.04
  Q 5.76 275.66 8.85 272.20
  C 9.48 271.49 9.98 270.54 11.01 270.33
  Z
  M 388.82 225.96
  Q 388.94 223.44 389.85 220.88
  A 1.04 1.04 0.0 0 0 388.49 219.57
  Q 376.66 224.29 363.41 223.97
  A 0.25 0.24 -84.2 0 0 363.17 224.17
  L 363.10 224.48
  A 0.59 0.58 9.6 0 0 363.61 225.19
  Q 369.99 225.78 368.94 232.24
  Q 365.60 252.72 361.69 272.24
  C 361.12 275.07 359.40 281.01 356.23 281.33
  Q 353.99 281.55 351.77 281.83
  A 0.33 0.33 0.0 0 0 351.50 282.26
  L 351.60 282.56
  A 0.99 0.99 0.0 0 0 352.54 283.23
  L 387.22 283.25
  Q 387.83 283.25 387.89 282.64
  L 387.92 282.28
  A 0.40 0.39 5.8 0 0 387.56 281.85
  C 383.76 281.51 379.94 281.15 380.40 276.12
  Q 381.10 268.45 382.85 261.05
  A 0.53 0.52 35.2 0 1 383.80 260.89
  C 385.21 263.03 387.36 263.95 389.89 264.09
  C 401.41 264.72 411.61 256.71 415.92 246.28
  C 419.58 237.40 419.12 226.08 409.66 221.11
  Q 403.95 218.11 396.88 220.13
  C 393.28 221.16 391.47 223.28 389.33 226.14
  Q 388.78 226.88 388.82 225.96
  Z
  M 571.80 256.50
  C 572.70 259.95 575.09 263.47 578.89 264.02
  C 588.65 265.45 593.96 261.48 598.98 254.13
  Q 600.41 252.02 601.02 249.85
  Q 601.19 249.25 600.94 248.68
  Q 600.63 247.95 600.27 248.66
  C 599.02 251.18 597.12 254.31 594.65 255.86
  A 1.13 1.10 38.3 0 1 593.69 255.96
  Q 590.34 254.72 591.09 251.26
  Q 594.28 236.60 596.79 221.68
  A 0.79 0.79 0.0 0 0 596.01 220.76
  L 578.79 220.77
  A 0.99 0.99 0.0 0 0 577.82 221.58
  Q 577.58 222.99 577.14 224.23
  Q 576.67 225.58 576.13 224.25
  C 574.21 219.53 568.88 218.54 564.28 219.65
  Q 552.78 222.45 545.63 233.09
  Q 540.49 240.74 541.77 250.82
  Q 542.98 260.38 551.82 263.56
  Q 556.19 265.14 562.81 263.62
  C 566.49 262.77 568.95 259.58 570.58 256.36
  Q 571.36 254.82 571.80 256.50
  Z
  M 105.90 231.58
  C 105.34 230.86 105.12 229.98 104.44 229.30
  C 101.04 225.88 95.83 226.12 91.54 227.63
  Q 77.19 232.65 72.23 247.26
  C 68.46 258.39 73.75 272.25 87.26 271.71
  Q 96.72 271.32 100.26 263.81
  Q 101.13 261.95 101.64 263.95
  Q 103.73 272.26 113.03 271.69
  Q 122.45 271.12 127.87 262.96
  Q 130.07 259.65 131.06 255.77
  Q 131.11 255.53 130.88 255.51
  L 130.59 255.48
  Q 129.94 255.41 129.69 256.02
  Q 127.43 261.45 124.32 262.83
  A 2.33 2.33 0.0 0 1 121.05 260.89
  Q 120.88 258.70 121.24 256.63
  Q 123.51 243.67 126.63 229.99
  Q 127.06 228.08 125.11 228.04
  Q 117.22 227.88 109.50 228.05
  Q 107.10 228.10 107.15 231.14
  Q 107.18 233.22 105.90 231.58
  Z
  M 216.00 236.98
  Q 216.36 232.59 218.01 227.87
  A 0.55 0.54 1.4 0 0 217.34 227.17
  C 212.77 228.54 208.08 229.90 203.20 230.04
  Q 197.59 230.19 191.56 230.70
  Q 191.07 230.75 191.06 231.23
  L 191.05 231.57
  Q 191.04 231.71 191.18 231.73
  C 194.52 232.29 197.17 233.36 196.58 237.39
  Q 194.31 253.00 190.81 268.83
  A 1.77 1.77 0.0 0 0 192.57 270.98
  L 208.81 270.67
  A 1.25 1.25 0.0 0 0 210.02 269.68
  Q 212.02 260.66 213.43 250.79
  C 213.93 247.33 214.90 243.88 216.28 240.72
  C 217.34 238.26 220.43 234.44 223.49 236.69
  C 224.76 237.62 225.03 239.66 224.68 241.04
  Q 222.06 251.52 221.10 258.76
  C 219.23 272.86 235.34 274.53 243.46 267.55
  Q 248.54 263.19 251.00 256.68
  Q 251.21 256.14 250.93 255.63
  L 250.80 255.40
  A 0.31 0.31 0.0 0 0 250.26 255.40
  C 248.84 258.01 247.02 261.45 244.17 262.66
  A 2.33 2.32 -16.9 0 1 240.97 260.96
  Q 240.69 259.51 241.01 257.95
  Q 242.81 249.05 244.65 239.92
  C 245.27 236.84 246.11 232.51 243.74 229.88
  Q 241.28 227.16 238.55 226.74
  C 230.20 225.46 221.60 230.61 216.72 237.25
  Q 215.88 238.41 216.00 236.98
  Z
  M 157.26 236.88
  Q 155.32 239.48 156.05 236.32
  Q 156.94 232.49 157.99 228.64
  Q 158.12 228.17 157.96 227.72
  Q 157.70 226.99 156.97 227.24
  Q 144.61 231.48 132.11 230.60
  A 0.58 0.58 0.0 0 0 131.49 231.09
  L 131.45 231.35
  Q 131.38 231.77 131.81 231.84
  C 135.11 232.35 137.63 234.11 136.92 237.93
  Q 135.70 244.53 134.56 250.93
  C 133.43 257.33 131.60 263.56 130.97 270.02
  A 0.75 0.74 -87.6 0 0 131.72 270.84
  L 148.58 270.68
  A 1.80 1.79 -84.9 0 0 150.33 269.21
  Q 152.42 258.12 154.57 246.34
  Q 155.35 242.02 157.81 238.61
  C 161.27 233.81 166.14 235.97 164.70 241.71
  Q 162.85 249.08 161.75 256.00
  C 160.64 263.03 161.42 270.37 170.21 271.28
  Q 180.02 272.29 186.52 264.61
  Q 190.20 260.25 191.22 255.93
  Q 191.32 255.50 190.90 255.36
  L 190.65 255.27
  Q 190.52 255.22 190.47 255.34
  C 189.06 258.31 185.92 264.70 181.86 262.32
  Q 181.41 262.05 181.30 261.54
  Q 180.85 259.43 181.15 258.00
  C 182.84 249.96 184.36 242.09 185.50 234.33
  C 186.01 230.81 181.94 227.47 179.04 227.06
  C 170.49 225.84 162.45 229.92 157.26 236.88
  Z
  M 406.25 313.72
  A 0.48 0.47 -39.8 0 1 406.32 312.98
  Q 412.60 308.79 412.17 301.94
  C 411.81 296.15 404.96 295.75 400.53 295.86
  C 398.07 295.93 396.13 297.51 394.05 298.61
  Q 391.72 299.84 392.71 302.36
  Q 392.96 303.00 393.65 303.07
  L 395.18 303.22
  Q 395.83 303.28 395.66 303.92
  L 388.87 329.15
  A 2.34 2.33 20.7 0 0 390.10 331.85
  C 395.69 334.59 405.65 331.47 408.80 326.04
  Q 412.50 319.66 406.25 313.72
  Z
  M 205.55 326.82
  Q 203.12 312.25 208.31 298.03
  Q 208.77 296.79 207.44 296.85
  L 205.01 296.96
  Q 203.81 297.02 203.45 298.17
  Q 199.57 310.42 201.11 322.94
  Q 201.63 327.25 203.58 331.27
  Q 204.54 333.24 206.65 332.90
  A 1.38 1.38 0.0 0 0 207.56 332.31
  Q 211.00 327.15 212.81 321.83
  Q 216.12 312.04 219.41 303.62
  Q 220.32 301.29 221.75 299.01
  A 0.88 0.87 -54.8 0 0 221.56 297.87
  L 219.57 296.27
  Q 218.99 295.81 218.45 296.32
  Q 216.87 297.82 216.21 299.59
  Q 211.78 311.53 208.76 321.82
  Q 208.01 324.38 207.02 326.97
  Q 206.02 329.60 205.55 326.82
  Z
  M 313.01 315.72
  Q 313.02 311.56 313.50 307.04
  C 313.85 303.74 313.70 300.44 313.40 297.16
  A 0.70 0.70 0.0 0 0 312.79 296.53
  C 310.31 296.20 308.48 297.14 307.58 299.61
  C 304.25 308.81 302.33 318.24 299.65 327.36
  Q 299.58 327.60 299.39 327.76
  Q 299.04 328.05 298.54 327.83
  A 0.65 0.65 0.0 0 1 298.17 327.26
  Q 298.10 322.37 300.01 317.45
  C 300.27 316.77 300.19 315.86 300.20 315.13
  A 0.39 0.39 0.0 0 0 299.54 314.85
  Q 293.63 320.65 295.04 328.83
  C 296.12 335.05 303.28 332.98 304.26 327.91
  Q 306.50 316.43 309.88 305.05
  Q 309.94 304.85 310.14 304.90
  L 310.39 304.95
  Q 310.44 304.96 310.43 305.01
  Q 308.87 314.25 309.45 322.45
  Q 309.59 324.30 310.43 326.11
  Q 310.69 326.67 311.28 326.89
  C 314.71 328.15 314.92 323.75 315.28 321.78
  Q 315.51 320.52 316.01 319.43
  Q 318.17 314.70 320.09 309.74
  C 320.62 308.40 321.57 307.20 322.22 305.89
  Q 322.25 305.83 322.30 305.86
  L 322.55 305.97
  Q 322.68 306.02 322.64 306.16
  Q 320.54 313.59 318.90 321.02
  C 318.23 324.08 317.12 329.34 318.87 331.58
  C 319.98 332.98 323.01 332.53 324.50 332.21
  A 0.92 0.91 55.0 0 0 324.79 330.54
  Q 321.94 328.76 322.64 324.98
  C 324.03 317.54 325.25 310.16 326.81 302.92
  Q 327.39 300.24 327.42 297.36
  A 0.86 0.85 3.3 0 0 326.65 296.50
  C 324.66 296.29 322.82 296.79 321.76 298.64
  C 318.63 304.12 316.30 310.19 313.65 315.86
  Q 313.01 317.22 313.01 315.72
  Z
  M 363.58 322.61
  C 365.27 325.92 367.88 327.20 371.50 325.72
  Q 377.74 323.17 381.41 317.11
  Q 381.89 316.33 380.83 316.07
  A 1.04 1.03 -58.9 0 0 379.89 316.31
  Q 376.60 319.30 373.29 321.98
  Q 371.51 323.42 368.84 323.01
  Q 368.29 322.93 367.89 322.58
  Q 366.13 321.07 368.10 319.84
  C 371.13 317.95 375.98 314.51 375.13 310.40
  A 1.77 1.76 85.4 0 0 373.48 308.99
  C 368.09 308.74 365.65 312.44 363.77 316.77
  C 362.56 319.55 360.37 321.61 357.95 323.31
  A 0.60 0.60 0.0 0 1 357.01 322.84
  C 356.92 320.54 357.24 318.02 358.39 316.00
  C 361.64 310.27 364.16 304.75 363.16 298.00
  Q 363.08 297.45 362.54 297.33
  Q 359.80 296.68 359.06 299.25
  Q 357.52 304.57 356.35 309.62
  A 0.82 0.82 0.0 0 1 355.24 310.19
  C 354.35 309.81 353.49 309.11 352.48 309.29
  Q 347.67 310.14 346.10 313.84
  C 344.65 317.22 343.62 320.43 340.46 322.77
  Q 338.98 323.87 339.06 322.03
  Q 339.20 318.83 340.05 315.64
  C 340.64 313.46 339.69 311.68 338.73 309.81
  Q 338.49 309.33 337.97 309.18
  C 331.98 307.52 327.06 316.70 326.70 321.34
  C 326.40 325.36 328.87 327.18 332.76 325.22
  Q 334.07 324.56 335.32 323.65
  Q 335.75 323.34 336.02 323.80
  C 338.39 327.93 341.46 325.50 343.67 323.03
  A 0.57 0.57 0.0 0 1 344.63 323.22
  Q 345.95 326.90 349.63 325.57
  C 350.84 325.13 351.63 324.04 352.51 323.15
  A 0.78 0.78 0.0 0 1 353.81 323.47
  L 354.26 324.94
  Q 354.47 325.63 355.16 325.85
  C 358.21 326.80 360.61 324.19 362.65 322.43
  Q 363.24 321.92 363.58 322.61
  Z
  M 474.39 322.82
  Q 475.58 320.23 477.24 317.36
  C 478.79 314.69 477.77 311.37 474.22 311.64
  Q 473.36 311.71 473.61 310.88
  Q 474.08 309.33 473.49 307.99
  A 2.06 2.06 0.0 0 0 470.41 307.15
  Q 468.30 308.66 468.10 311.46
  Q 467.60 318.17 461.55 322.03
  Q 459.21 323.53 456.24 322.87
  Q 455.96 322.81 455.77 322.60
  Q 454.32 321.02 456.06 319.79
  Q 461.13 316.19 462.35 314.12
  C 463.80 311.67 463.01 308.43 459.67 308.94
  Q 455.78 309.54 453.31 313.28
  C 451.85 315.49 451.20 318.00 449.40 320.04
  Q 447.89 321.74 445.97 322.98
  A 1.65 1.65 0.0 0 1 443.66 322.43
  C 442.96 321.24 443.13 319.45 443.72 318.23
  Q 446.21 313.06 447.96 307.00
  A 1.39 1.39 0.0 0 1 449.33 306.00
  L 455.08 306.15
  Q 455.60 306.17 455.99 305.81
  Q 456.48 305.36 456.29 304.77
  Q 456.12 304.23 455.58 304.04
  Q 452.46 303.01 449.69 302.93
  Q 449.19 302.92 449.20 302.42
  L 449.24 298.57
  Q 449.25 297.91 448.60 297.78
  C 444.93 297.07 444.58 300.84 443.58 303.21
  Q 443.30 303.89 442.59 303.67
  Q 440.37 302.95 437.88 302.94
  A 0.67 0.67 0.0 0 1 437.21 302.24
  L 437.35 298.78
  A 1.17 1.16 89.6 0 0 436.13 297.57
  C 432.58 297.75 433.22 300.10 432.17 302.53
  A 1.58 1.56 -81.5 0 1 430.90 303.48
  Q 428.52 303.76 425.97 303.65
  Q 425.43 303.62 425.05 303.99
  Q 424.62 304.42 424.73 305.06
  Q 424.83 305.66 425.39 305.90
  Q 427.95 307.00 430.54 307.04
  A 0.53 0.53 0.0 0 1 431.05 307.69
  Q 430.41 310.51 429.90 313.15
  C 429.15 316.99 425.97 319.89 423.07 321.99
  Q 421.17 323.37 418.54 322.87
  Q 418.27 322.82 418.02 322.72
  Q 415.73 321.71 417.61 320.07
  C 420.27 317.74 424.50 315.58 424.68 311.69
  C 424.90 307.05 418.75 309.17 417.08 310.76
  C 413.33 314.33 410.86 319.66 414.12 324.49
  C 416.04 327.32 420.63 326.52 422.92 324.82
  Q 425.30 323.06 427.70 321.31
  Q 428.35 320.84 428.54 321.62
  Q 428.84 322.91 429.40 324.19
  C 430.67 327.04 435.09 326.37 436.77 324.40
  Q 437.96 322.99 439.17 321.53
  A 0.56 0.56 0.0 0 1 440.13 321.68
  C 440.74 323.24 441.41 325.54 443.24 325.98
  C 445.99 326.64 448.34 324.95 449.94 322.86
  A 0.90 0.90 0.0 0 1 451.46 323.01
  C 453.67 327.60 458.03 326.56 461.63 324.67
  Q 462.22 324.36 462.64 324.89
  L 463.03 325.40
  A 1.07 1.06 41.6 0 0 464.79 325.30
  L 470.68 315.36
  A 1.32 1.30 20.2 0 1 472.04 314.74
  L 473.81 315.05
  Q 474.82 315.23 474.23 316.06
  C 472.28 318.85 468.75 323.80 473.01 326.27
  C 477.18 328.67 483.44 319.68 484.86 316.41
  A 0.54 0.53 -60.9 0 0 484.68 315.75
  Q 484.37 315.53 484.03 315.70
  Q 482.94 316.23 482.33 317.31
  Q 479.21 322.82 474.93 323.52
  Q 474.00 323.67 474.39 322.82
  Z
  M 249.0487 304.3907
  A 2.50 2.01 121.1 0 0 252.0611 303.2882
  A 2.50 2.01 121.1 0 0 251.6313 300.1093
  A 2.50 2.01 121.1 0 0 248.6189 301.2118
  A 2.50 2.01 121.1 0 0 249.0487 304.3907
  Z
  M 224.3917 304.3931
  A 2.57 1.80 124.3 0 0 227.3270 303.2843
  A 2.57 1.80 124.3 0 0 227.2883 300.1469
  A 2.57 1.80 124.3 0 0 224.3530 301.2557
  A 2.57 1.80 124.3 0 0 224.3917 304.3931
  Z
  M 235.19 315.71
  C 236.13 317.82 238.23 321.39 236.66 323.59
  A 0.74 0.74 0.0 0 1 235.41 323.51
  L 234.05 320.94
  Q 233.18 319.27 231.99 320.73
  Q 229.33 323.97 232.98 326.32
  C 236.07 328.30 240.23 323.92 240.67 321.48
  C 241.34 317.72 236.43 313.49 238.74 310.38
  A 1.70 1.70 0.0 0 0 237.54 307.67
  C 234.91 307.41 233.06 310.14 232.82 312.50
  C 232.49 315.72 228.13 319.61 225.46 322.05
  Q 224.67 322.78 223.66 323.00
  A 0.73 0.73 0.0 0 1 222.78 322.18
  Q 223.63 316.34 226.01 311.22
  Q 226.76 309.61 224.98 309.76
  L 223.48 309.89
  Q 221.83 310.04 221.27 311.59
  Q 219.59 316.21 219.88 322.52
  C 220.01 325.30 222.99 326.84 225.24 325.26
  Q 229.91 321.99 234.24 315.62
  Q 234.79 314.81 235.19 315.71
  Z
  M 282.00 322.12
  Q 282.78 318.54 283.75 314.86
  C 284.76 311.04 282.08 308.41 278.45 310.26
  Q 276.93 311.03 275.52 310.18
  A 2.36 2.36 0.0 0 0 272.04 311.57
  Q 271.10 314.90 266.93 316.01
  Q 266.26 316.19 266.34 315.50
  C 267.03 309.21 259.58 307.09 256.38 312.11
  Q 254.69 314.77 253.67 317.60
  Q 252.80 320.00 250.76 321.53
  Q 249.90 322.17 249.02 322.60
  Q 246.89 323.64 247.31 321.31
  Q 248.22 316.28 250.26 311.18
  Q 250.85 309.69 249.25 309.81
  L 247.80 309.91
  Q 246.47 310.01 246.06 311.29
  Q 244.57 315.90 244.00 320.70
  C 243.61 323.96 246.17 327.46 249.71 325.23
  Q 251.54 324.08 253.14 322.45
  A 0.63 0.63 0.0 0 1 254.20 322.73
  C 254.65 324.44 255.65 326.00 257.61 326.11
  C 261.90 326.34 264.72 323.82 266.04 319.93
  A 2.59 2.56 88.0 0 1 267.45 318.40
  L 270.07 317.25
  Q 270.97 316.86 270.72 317.81
  L 268.84 324.96
  Q 268.55 326.07 269.69 326.03
  L 270.63 326.00
  A 2.07 2.06 -82.2 0 0 272.53 324.55
  C 273.63 321.07 274.69 315.78 277.80 313.90
  Q 280.26 312.40 279.62 315.21
  Q 278.82 318.73 277.97 322.48
  C 277.37 325.09 279.98 327.60 282.45 326.20
  Q 288.49 322.78 290.87 316.38
  A 0.79 0.78 -66.9 0 0 290.48 315.40
  L 290.22 315.27
  A 0.52 0.51 -62.1 0 0 289.55 315.48
  Q 286.73 320.39 283.15 322.89
  Q 281.59 323.98 282.00 322.12
  Z"
/>
<path fill="#8ed9f8" d="
  M 424.81 86.12
  C 428.98 90.06 432.14 95.00 436.56 99.08
  Q 437.37 99.83 436.30 99.58
  Q 435.55 99.40 434.95 98.88
  C 423.83 89.09 409.29 81.62 395.70 75.96
  Q 386.32 72.05 374.67 69.26
  C 370.71 68.31 366.88 68.14 363.01 67.45
  Q 360.48 67.00 358.04 66.84
  Q 341.15 65.74 330.63 67.25
  C 324.75 68.10 318.97 68.56 313.15 70.05
  Q 303.64 72.47 296.67 75.22
  Q 288.14 78.57 279.68 82.90
  C 272.60 86.53 266.28 91.46 259.49 95.89
  Q 255.25 98.66 249.57 105.24
  C 248.01 107.05 245.81 107.48 243.54 107.52
  Q 215.25 108.02 193.13 107.65
  Q 180.80 107.44 169.02 107.96
  A 0.95 0.94 -77.1 0 1 168.15 106.57
  Q 169.69 103.68 171.58 101.18
  Q 182.28 86.96 194.83 76.04
  Q 200.04 71.51 209.39 64.77
  Q 212.45 62.57 215.30 60.86
  C 217.91 59.29 220.55 57.57 223.27 56.31
  C 228.67 53.83 234.03 50.75 239.46 48.56
  C 248.92 44.74 258.26 41.76 268.16 39.99
  C 275.26 38.72 282.53 36.58 289.74 36.41
  Q 311.37 35.87 318.18 36.48
  Q 343.59 38.72 368.06 48.40
  Q 375.79 51.46 388.00 58.10
  Q 400.78 65.06 413.41 75.72
  C 417.33 79.04 421.08 82.60 424.81 86.12
  Z"
/>
<path fill="#19479a" d="
  M 370.7347 116.7298
  A 28.66 26.42 -1.1 0 1 342.5872 143.6951
  A 28.66 26.42 -1.1 0 1 313.4253 117.8302
  A 28.66 26.42 -1.1 0 1 341.5728 90.8649
  A 28.66 26.42 -1.1 0 1 370.7347 116.7298
  Z
  M 367.08 114.78
  A 12.42 12.42 0.0 0 0 354.66 102.36
  A 12.42 12.42 0.0 0 0 342.24 114.78
  A 12.42 12.42 0.0 0 0 354.66 127.20
  A 12.42 12.42 0.0 0 0 367.08 114.78
  Z"
/>
<circle fill="#ffffff" cx="354.66" cy="114.78" r="12.42"/>
<path fill="#19479a" d="
  M 445.56 183.27
  Q 427.62 190.70 406.18 193.55
  Q 399.92 194.38 391.99 194.97
  C 385.22 195.47 378.73 195.38 372.14 194.75
  Q 366.10 194.17 359.83 193.62
  Q 350.56 192.82 340.19 190.02
  Q 293.50 177.42 260.32 143.81
  Q 254.32 137.72 248.36 130.61
  Q 246.22 128.05 248.83 130.13
  C 257.06 136.68 266.21 143.21 275.64 148.03
  C 288.42 154.56 300.99 159.96 315.22 162.29
  C 322.69 163.51 330.24 164.79 337.78 164.93
  Q 380.24 165.71 416.90 142.61
  Q 424.50 137.82 431.42 131.71
  Q 435.64 127.98 438.52 124.33
  A 1.00 0.97 -74.5 0 1 439.13 123.97
  Q 440.54 123.73 442.00 123.73
  Q 480.79 123.67 518.31 123.46
  A 0.66 0.66 0.0 0 1 518.87 124.49
  Q 501.49 150.92 475.29 168.11
  C 470.15 171.48 464.75 174.35 459.49 177.32
  C 455.25 179.71 450.18 181.35 445.56 183.27
  Z"
/>
<path fill="#19479a" d="
  M 305.5977 260.0578
  A 37.54 32.08 126.6 0 1 302.2256 210.7931
  A 37.54 32.08 126.6 0 1 350.3623 199.7822
  A 37.54 32.08 126.6 0 1 353.7344 249.0469
  A 37.54 32.08 126.6 0 1 305.5977 260.0578
  Z
  M 320.66 263.46
  Q 325.77 264.06 327.59 259.61
  C 328.25 258.03 329.03 256.45 329.34 254.75
  Q 333.75 230.22 338.51 204.78
  C 339.19 201.15 339.82 196.76 334.50 196.58
  C 328.29 196.37 326.89 201.91 326.11 206.83
  C 323.47 223.57 319.55 240.86 317.05 257.78
  C 316.67 260.34 317.76 263.12 320.66 263.46
  Z"
/>
<ellipse fill="#19479a" cx="0.00" cy="0.00" transform="translate(479.45,204.60) rotate(-22.5)" rx="11.74" ry="10.20"/>
<path fill="#19479a" d="
  M 629.70 256.56
  Q 629.38 255.12 628.52 256.33
  Q 622.58 264.67 612.79 264.30
  C 607.16 264.09 602.84 260.33 602.56 254.84
  Q 602.39 251.51 603.11 248.01
  Q 607.14 228.56 610.73 208.54
  Q 611.96 201.68 604.94 200.82
  Q 604.35 200.75 604.18 200.21
  A 0.71 0.71 0.0 0 1 604.79 199.29
  C 609.55 198.87 614.54 199.18 619.16 197.98
  Q 625.68 196.29 631.71 194.26
  A 0.68 0.68 0.0 0 1 632.60 195.02
  Q 627.54 223.25 622.12 251.61
  Q 621.70 253.79 623.32 255.39
  A 2.14 2.14 0.0 0 0 626.20 255.50
  Q 629.14 253.00 630.82 249.16
  Q 630.97 248.80 631.28 248.58
  Q 631.94 248.12 631.97 248.93
  L 632.00 249.92
  Q 632.03 250.59 632.67 250.42
  Q 638.70 248.78 642.28 252.30
  C 644.10 254.10 643.42 258.04 643.15 260.36
  A 1.79 1.78 10.9 0 0 644.47 262.29
  C 647.57 263.12 651.06 263.55 653.61 261.15
  C 657.22 257.75 655.30 252.45 650.82 251.02
  C 645.93 249.46 636.43 245.66 635.19 240.33
  Q 633.02 231.03 639.96 225.53
  C 648.25 218.97 659.59 218.35 669.50 220.45
  Q 674.19 221.44 676.28 224.58
  C 678.79 228.37 676.30 232.56 671.85 232.27
  C 665.73 231.88 664.89 228.80 665.12 223.37
  A 1.97 1.96 8.3 0 0 663.63 221.38
  C 656.96 219.70 652.81 228.33 659.54 231.33
  Q 665.02 233.77 670.08 235.85
  C 679.31 239.63 679.19 250.53 673.11 256.70
  Q 667.16 262.76 657.24 264.02
  C 650.26 264.90 631.80 265.93 629.70 256.56
  Z"
/>
<path fill="#ffffff" d="
  M 320.66 263.46
  C 317.76 263.12 316.67 260.34 317.05 257.78
  C 319.55 240.86 323.47 223.57 326.11 206.83
  C 326.89 201.91 328.29 196.37 334.50 196.58
  C 339.82 196.76 339.19 201.15 338.51 204.78
  Q 333.75 230.22 329.34 254.75
  C 329.03 256.45 328.25 258.03 327.59 259.61
  Q 325.77 264.06 320.66 263.46
  Z"
/>
<path fill="#19479a" d="
  M 428.48 223.12
  L 423.14 223.14
  A 0.37 0.18 -19.3 0 1 423.05 223.13
  Q 421.77 222.82 421.66 222.01
  A 0.89 0.89 0.0 0 1 422.58 221.00
  C 436.59 221.51 445.46 209.58 450.86 198.07
  C 451.12 197.52 451.60 197.02 452.21 196.91
  A 0.68 0.68 0.0 0 1 453.02 197.56
  Q 453.08 199.01 452.84 200.25
  Q 450.94 210.25 449.43 220.21
  Q 449.33 220.85 449.98 220.86
  L 460.02 220.94
  Q 460.43 220.95 460.65 221.28
  Q 460.92 221.69 460.88 222.18
  Q 460.82 223.03 461.67 223.02
  C 465.81 222.97 469.73 223.30 473.88 222.23
  Q 479.92 220.69 486.24 219.26
  Q 487.45 218.98 487.20 220.20
  Q 484.05 235.00 481.18 249.86
  Q 480.75 252.08 481.31 254.27
  A 2.09 2.08 68.4 0 0 484.33 255.58
  C 487.23 253.98 488.60 250.59 490.66 248.14
  Q 490.99 247.76 490.99 247.26
  C 491.00 228.18 506.84 218.61 524.46 219.41
  C 528.76 219.61 534.52 221.24 537.14 224.99
  C 545.26 236.63 525.03 246.44 520.50 234.95
  C 518.49 229.85 522.07 226.52 525.52 223.44
  A 1.12 1.12 0.0 0 0 525.00 221.51
  C 519.36 220.36 515.60 224.24 512.88 228.59
  C 508.29 235.94 508.53 246.96 516.15 252.40
  C 520.46 255.48 527.34 254.69 531.39 251.65
  Q 534.74 249.13 536.95 246.27
  Q 538.28 244.54 537.79 246.68
  Q 537.38 248.46 536.15 250.03
  C 528.83 259.43 520.33 265.58 507.85 264.40
  Q 502.83 263.92 499.25 261.35
  C 496.04 259.04 492.36 254.71 491.87 250.67
  Q 491.79 249.99 491.56 249.35
  Q 491.29 248.60 490.92 249.31
  C 489.76 251.49 489.04 253.90 487.55 255.89
  Q 484.11 260.49 480.54 262.38
  C 476.14 264.70 466.96 265.85 463.31 260.93
  Q 459.94 256.40 461.00 250.73
  Q 462.80 241.03 464.82 231.53
  Q 465.46 228.51 463.66 226.32
  A 2.33 2.32 -13.7 0 0 462.37 225.54
  Q 459.94 225.03 458.10 223.86
  C 455.90 222.46 452.44 223.00 449.93 223.12
  A 1.60 1.60 0.0 0 0 448.44 224.41
  Q 446.16 236.33 443.87 247.96
  C 443.11 251.82 441.66 259.06 446.47 260.43
  C 451.96 261.98 455.62 253.87 457.28 250.14
  A 0.81 0.81 0.0 0 1 458.32 249.72
  Q 459.17 250.05 458.93 250.95
  Q 456.03 261.65 446.05 263.72
  Q 440.14 264.95 433.37 263.76
  C 426.34 262.54 422.82 258.06 423.79 250.89
  Q 425.29 239.87 428.24 228.20
  Q 428.78 226.06 429.10 223.83
  Q 429.21 223.11 428.48 223.12
  Z"
/>
<path fill="#19479a" d="
  M 11.01 270.33
  C 9.98 270.54 9.48 271.49 8.85 272.20
  Q 5.76 275.66 6.20 271.04
  Q 7.28 259.77 8.07 249.39
  Q 8.33 246.08 9.38 242.95
  Q 9.65 242.15 9.89 242.96
  C 10.74 245.90 10.77 249.24 11.46 252.25
  C 12.89 258.43 16.31 265.21 21.87 268.63
  C 28.84 272.92 36.04 270.64 39.81 263.69
  C 42.52 258.70 39.91 253.12 35.59 250.23
  Q 30.05 246.52 23.28 242.90
  Q 8.96 235.23 14.29 219.47
  C 18.39 207.37 32.59 200.77 44.98 201.58
  Q 48.97 201.84 57.78 203.33
  Q 60.28 203.75 62.65 202.48
  C 64.15 201.68 64.63 200.23 65.94 199.32
  A 0.53 0.53 0.0 0 1 66.77 199.79
  Q 65.79 211.20 64.50 222.72
  Q 64.42 223.44 64.16 224.13
  Q 63.20 226.66 62.76 223.99
  C 61.54 216.61 59.75 209.30 53.15 205.46
  C 46.70 201.70 37.30 204.88 37.73 213.52
  C 37.84 215.69 38.59 217.52 40.38 218.84
  Q 44.88 222.18 49.68 224.31
  Q 53.92 226.20 58.68 229.61
  C 64.68 233.90 66.94 240.31 65.41 247.39
  C 61.68 264.62 45.19 273.52 28.76 272.59
  Q 23.05 272.27 16.08 270.46
  Q 13.58 269.82 11.01 270.33
  Z"
/>
<path fill="#19479a" d="
  M 389.33 226.14
  C 391.47 223.28 393.28 221.16 396.88 220.13
  Q 403.95 218.11 409.66 221.11
  C 419.12 226.08 419.58 237.40 415.92 246.28
  C 411.61 256.71 401.41 264.72 389.89 264.09
  C 387.36 263.95 385.21 263.03 383.80 260.89
  A 0.53 0.52 35.2 0 0 382.85 261.05
  Q 381.10 268.45 380.40 276.12
  C 379.94 281.15 383.76 281.51 387.56 281.85
  A 0.40 0.39 5.8 0 1 387.92 282.28
  L 387.89 282.64
  Q 387.83 283.25 387.22 283.25
  L 352.54 283.23
  A 0.99 0.99 0.0 0 1 351.60 282.56
  L 351.50 282.26
  A 0.33 0.33 0.0 0 1 351.77 281.83
  Q 353.99 281.55 356.23 281.33
  C 359.40 281.01 361.12 275.07 361.69 272.24
  Q 365.60 252.72 368.94 232.24
  Q 369.99 225.78 363.61 225.19
  A 0.59 0.58 9.6 0 1 363.10 224.48
  L 363.17 224.17
  A 0.25 0.24 -84.2 0 1 363.41 223.97
  Q 376.66 224.29 388.49 219.57
  A 1.04 1.04 0.0 0 1 389.85 220.88
  Q 388.94 223.44 388.82 225.96
  Q 388.78 226.88 389.33 226.14
  Z
  M 388.89 231.27
  Q 383.88 244.82 383.91 256.47
  C 383.92 261.97 390.22 264.09 392.53 258.20
  Q 396.89 247.07 398.79 235.32
  Q 399.59 230.37 399.13 226.26
  Q 398.86 223.75 396.28 223.13
  C 392.49 222.20 389.89 228.58 388.89 231.27
  Z"
/>
<path fill="#19479a" d="
  M 571.80 256.50
  Q 571.36 254.82 570.58 256.36
  C 568.95 259.58 566.49 262.77 562.81 263.62
  Q 556.19 265.14 551.82 263.56
  Q 542.98 260.38 541.77 250.82
  Q 540.49 240.74 545.63 233.09
  Q 552.78 222.45 564.28 219.65
  C 568.88 218.54 574.21 219.53 576.13 224.25
  Q 576.67 225.58 577.14 224.23
  Q 577.58 222.99 577.82 221.58
  A 0.99 0.99 0.0 0 1 578.79 220.77
  L 596.01 220.76
  A 0.79 0.79 0.0 0 1 596.79 221.68
  Q 594.28 236.60 591.09 251.26
  Q 590.34 254.72 593.69 255.96
  A 1.13 1.10 38.3 0 0 594.65 255.86
  C 597.12 254.31 599.02 251.18 600.27 248.66
  Q 600.63 247.95 600.94 248.68
  Q 601.19 249.25 601.02 249.85
  Q 600.41 252.02 598.98 254.13
  C 593.96 261.48 588.65 265.45 578.89 264.02
  C 575.09 263.47 572.70 259.95 571.80 256.50
  Z
  M 572.73 222.38
  C 565.27 217.92 560.68 247.49 560.15 251.41
  Q 559.74 254.40 560.11 257.66
  C 560.49 261.03 564.02 261.37 566.17 259.39
  Q 568.78 257.00 569.99 253.60
  Q 574.88 239.80 575.64 228.00
  Q 575.88 224.26 572.73 222.38
  Z"
/>
<path fill="#ffffff" d="
  M 560.15 251.41
  C 560.68 247.49 565.27 217.92 572.73 222.38
  Q 575.88 224.26 575.64 228.00
  Q 574.88 239.80 569.99 253.60
  Q 568.78 257.00 566.17 259.39
  C 564.02 261.37 560.49 261.03 560.11 257.66
  Q 559.74 254.40 560.15 251.41
  Z"
/>
<path fill="#ffffff" d="
  M 388.89 231.27
  C 389.89 228.58 392.49 222.20 396.28 223.13
  Q 398.86 223.75 399.13 226.26
  Q 399.59 230.37 398.79 235.32
  Q 396.89 247.07 392.53 258.20
  C 390.22 264.09 383.92 261.97 383.91 256.47
  Q 383.88 244.82 388.89 231.27
  Z"
/>
<path fill="#19479a" d="
  M 105.90 231.58
  Q 107.18 233.22 107.15 231.14
  Q 107.10 228.10 109.50 228.05
  Q 117.22 227.88 125.11 228.04
  Q 127.06 228.08 126.63 229.99
  Q 123.51 243.67 121.24 256.63
  Q 120.88 258.70 121.05 260.89
  A 2.33 2.33 0.0 0 0 124.32 262.83
  Q 127.43 261.45 129.69 256.02
  Q 129.94 255.41 130.59 255.48
  L 130.88 255.51
  Q 131.11 255.53 131.06 255.77
  Q 130.07 259.65 127.87 262.96
  Q 122.45 271.12 113.03 271.69
  Q 103.73 272.26 101.64 263.95
  Q 101.13 261.95 100.26 263.81
  Q 96.72 271.32 87.26 271.71
  C 73.75 272.25 68.46 258.39 72.23 247.26
  Q 77.19 232.65 91.54 227.63
  C 95.83 226.12 101.04 225.88 104.44 229.30
  C 105.12 229.98 105.34 230.86 105.90 231.58
  Z
  M 96.51 232.69
  C 93.03 242.08 90.35 251.84 89.34 261.18
  C 89.01 264.23 90.81 270.52 95.29 267.04
  Q 99.35 263.89 101.21 256.83
  C 103.15 249.44 105.70 240.58 104.87 233.31
  C 104.35 228.76 98.13 228.32 96.51 232.69
  Z"
/>
<path fill="#19479a" d="
  M 216.00 236.98
  Q 215.88 238.41 216.72 237.25
  C 221.60 230.61 230.20 225.46 238.55 226.74
  Q 241.28 227.16 243.74 229.88
  C 246.11 232.51 245.27 236.84 244.65 239.92
  Q 242.81 249.05 241.01 257.95
  Q 240.69 259.51 240.97 260.96
  A 2.33 2.32 -16.9 0 0 244.17 262.66
  C 247.02 261.45 248.84 258.01 250.26 255.40
  A 0.31 0.31 0.0 0 1 250.80 255.40
  L 250.93 255.63
  Q 251.21 256.14 251.00 256.68
  Q 248.54 263.19 243.46 267.55
  C 235.34 274.53 219.23 272.86 221.10 258.76
  Q 222.06 251.52 224.68 241.04
  C 225.03 239.66 224.76 237.62 223.49 236.69
  C 220.43 234.44 217.34 238.26 216.28 240.72
  C 214.90 243.88 213.93 247.33 213.43 250.79
  Q 212.02 260.66 210.02 269.68
  A 1.25 1.25 0.0 0 1 208.81 270.67
  L 192.57 270.98
  A 1.77 1.77 0.0 0 1 190.81 268.83
  Q 194.31 253.00 196.58 237.39
  C 197.17 233.36 194.52 232.29 191.18 231.73
  Q 191.04 231.71 191.05 231.57
  L 191.06 231.23
  Q 191.07 230.75 191.56 230.70
  Q 197.59 230.19 203.20 230.04
  C 208.08 229.90 212.77 228.54 217.34 227.17
  A 0.55 0.54 1.4 0 1 218.01 227.87
  Q 216.36 232.59 216.00 236.98
  Z"
/>
<path fill="#19479a" d="
  M 157.26 236.88
  C 162.45 229.92 170.49 225.84 179.04 227.06
  C 181.94 227.47 186.01 230.81 185.50 234.33
  C 184.36 242.09 182.84 249.96 181.15 258.00
  Q 180.85 259.43 181.30 261.54
  Q 181.41 262.05 181.86 262.32
  C 185.92 264.70 189.06 258.31 190.47 255.34
  Q 190.52 255.22 190.65 255.27
  L 190.90 255.36
  Q 191.32 255.50 191.22 255.93
  Q 190.20 260.25 186.52 264.61
  Q 180.02 272.29 170.21 271.28
  C 161.42 270.37 160.64 263.03 161.75 256.00
  Q 162.85 249.08 164.70 241.71
  C 166.14 235.97 161.27 233.81 157.81 238.61
  Q 155.35 242.02 154.57 246.34
  Q 152.42 258.12 150.33 269.21
  A 1.80 1.79 -84.9 0 1 148.58 270.68
  L 131.72 270.84
  A 0.75 0.74 -87.6 0 1 130.97 270.02
  C 131.60 263.56 133.43 257.33 134.56 250.93
  Q 135.70 244.53 136.92 237.93
  C 137.63 234.11 135.11 232.35 131.81 231.84
  Q 131.38 231.77 131.45 231.35
  L 131.49 231.09
  A 0.58 0.58 0.0 0 1 132.11 230.60
  Q 144.61 231.48 156.97 227.24
  Q 157.70 226.99 157.96 227.72
  Q 158.12 228.17 157.99 228.64
  Q 156.94 232.49 156.05 236.32
  Q 155.32 239.48 157.26 236.88
  Z"
/>
<path fill="#ffffff" d="
  M 89.34 261.18
  C 90.35 251.84 93.03 242.08 96.51 232.69
  C 98.13 228.32 104.35 228.76 104.87 233.31
  C 105.70 240.58 103.15 249.44 101.21 256.83
  Q 99.35 263.89 95.29 267.04
  C 90.81 270.52 89.01 264.23 89.34 261.18
  Z"
/>
<path fill="#bd2559" d="
  M 406.25 313.72
  Q 412.50 319.66 408.80 326.04
  C 405.65 331.47 395.69 334.59 390.10 331.85
  A 2.34 2.33 20.7 0 1 388.87 329.15
  L 395.66 303.92
  Q 395.83 303.28 395.18 303.22
  L 393.65 303.07
  Q 392.96 303.00 392.71 302.36
  Q 391.72 299.84 394.05 298.61
  C 396.13 297.51 398.07 295.93 400.53 295.86
  C 404.96 295.75 411.81 296.15 412.17 301.94
  Q 412.60 308.79 406.32 312.98
  A 0.48 0.47 -39.8 0 0 406.25 313.72
  Z
  M 400.59 300.93
  L 397.54 311.69
  A 0.43 0.43 0.0 0 0 397.98 312.23
  L 402.13 311.99
  Q 402.72 311.96 403.15 311.55
  Q 406.87 307.96 407.73 303.16
  Q 408.34 299.76 404.99 298.95
  L 404.29 298.77
  Q 401.40 298.07 400.59 300.93
  Z
  M 404.43 323.92
  Q 406.15 320.29 404.86 317.22
  A 2.28 2.28 0.0 0 0 402.04 315.94
  Q 399.40 316.81 396.95 316.59
  A 0.61 0.61 0.0 0 0 396.30 317.06
  L 393.57 329.19
  A 0.68 0.67 -82.5 0 0 394.20 330.02
  Q 401.40 330.33 404.43 323.92
  Z"
/>
<path fill="#bd2559" d="
  M 205.55 326.82
  Q 206.02 329.60 207.02 326.97
  Q 208.01 324.38 208.76 321.82
  Q 211.78 311.53 216.21 299.59
  Q 216.87 297.82 218.45 296.32
  Q 218.99 295.81 219.57 296.27
  L 221.56 297.87
  A 0.88 0.87 -54.8 0 1 221.75 299.01
  Q 220.32 301.29 219.41 303.62
  Q 216.12 312.04 212.81 321.83
  Q 211.00 327.15 207.56 332.31
  A 1.38 1.38 0.0 0 1 206.65 332.90
  Q 204.54 333.24 203.58 331.27
  Q 201.63 327.25 201.11 322.94
  Q 199.57 310.42 203.45 298.17
  Q 203.81 297.02 205.01 296.96
  L 207.44 296.85
  Q 208.77 296.79 208.31 298.03
  Q 203.12 312.25 205.55 326.82
  Z"
/>
<path fill="#bd2559" d="
  M 313.01 315.72
  Q 313.01 317.22 313.65 315.86
  C 316.30 310.19 318.63 304.12 321.76 298.64
  C 322.82 296.79 324.66 296.29 326.65 296.50
  A 0.86 0.85 3.3 0 1 327.42 297.36
  Q 327.39 300.24 326.81 302.92
  C 325.25 310.16 324.03 317.54 322.64 324.98
  Q 321.94 328.76 324.79 330.54
  A 0.92 0.91 55.0 0 1 324.50 332.21
  C 323.01 332.53 319.98 332.98 318.87 331.58
  C 317.12 329.34 318.23 324.08 318.90 321.02
  Q 320.54 313.59 322.64 306.16
  Q 322.68 306.02 322.55 305.97
  L 322.30 305.86
  Q 322.25 305.83 322.22 305.89
  C 321.57 307.20 320.62 308.40 320.09 309.74
  Q 318.17 314.70 316.01 319.43
  Q 315.51 320.52 315.28 321.78
  C 314.92 323.75 314.71 328.15 311.28 326.89
  Q 310.69 326.67 310.43 326.11
  Q 309.59 324.30 309.45 322.45
  Q 308.87 314.25 310.43 305.01
  Q 310.44 304.96 310.39 304.95
  L 310.14 304.90
  Q 309.94 304.85 309.88 305.05
  Q 306.50 316.43 304.26 327.91
  C 303.28 332.98 296.12 335.05 295.04 328.83
  Q 293.63 320.65 299.54 314.85
  A 0.39 0.39 0.0 0 1 300.20 315.13
  C 300.19 315.86 300.27 316.77 300.01 317.45
  Q 298.10 322.37 298.17 327.26
  A 0.65 0.65 0.0 0 0 298.54 327.83
  Q 299.04 328.05 299.39 327.76
  Q 299.58 327.60 299.65 327.36
  C 302.33 318.24 304.25 308.81 307.58 299.61
  C 308.48 297.14 310.31 296.20 312.79 296.53
  A 0.70 0.70 0.0 0 1 313.40 297.16
  C 313.70 300.44 313.85 303.74 313.50 307.04
  Q 313.02 311.56 313.01 315.72
  Z"
/>
<path fill="#bd2559" d="
  M 362.65 322.43
  C 360.61 324.19 358.21 326.80 355.16 325.85
  Q 354.47 325.63 354.26 324.94
  L 353.81 323.47
  A 0.78 0.78 0.0 0 0 352.51 323.15
  C 351.63 324.04 350.84 325.13 349.63 325.57
  Q 345.95 326.90 344.63 323.22
  A 0.57 0.57 0.0 0 0 343.67 323.03
  C 341.46 325.50 338.39 327.93 336.02 323.80
  Q 335.75 323.34 335.32 323.65
  Q 334.07 324.56 332.76 325.22
  C 328.87 327.18 326.40 325.36 326.70 321.34
  C 327.06 316.70 331.98 307.52 337.97 309.18
  Q 338.49 309.33 338.73 309.81
  C 339.69 311.68 340.64 313.46 340.05 315.64
  Q 339.20 318.83 339.06 322.03
  Q 338.98 323.87 340.46 322.77
  C 343.62 320.43 344.65 317.22 346.10 313.84
  Q 347.67 310.14 352.48 309.29
  C 353.49 309.11 354.35 309.81 355.24 310.19
  A 0.82 0.82 0.0 0 0 356.35 309.62
  Q 357.52 304.57 359.06 299.25
  Q 359.80 296.68 362.54 297.33
  Q 363.08 297.45 363.16 298.00
  C 364.16 304.75 361.64 310.27 358.39 316.00
  C 357.24 318.02 356.92 320.54 357.01 322.84
  A 0.60 0.60 0.0 0 0 357.95 323.31
  C 360.37 321.61 362.56 319.55 363.77 316.77
  C 365.65 312.44 368.09 308.74 373.48 308.99
  A 1.77 1.76 85.4 0 1 375.13 310.40
  C 375.98 314.51 371.13 317.95 368.10 319.84
  Q 366.13 321.07 367.89 322.58
  Q 368.29 322.93 368.84 323.01
  Q 371.51 323.42 373.29 321.98
  Q 376.60 319.30 379.89 316.31
  A 1.04 1.03 -58.9 0 1 380.83 316.07
  Q 381.89 316.33 381.41 317.11
  Q 377.74 323.17 371.50 325.72
  C 367.88 327.20 365.27 325.92 363.58 322.61
  Q 363.24 321.92 362.65 322.43
  Z
  M 348.36 316.17
  A 1.56 1.56 0.0 0 0 348.14 316.71
  L 347.19 321.23
  A 1.56 1.56 0.0 0 0 349.73 322.74
  L 354.01 319.12
  A 1.56 1.56 0.0 0 0 354.53 317.62
  L 353.60 313.02
  A 1.56 1.56 0.0 0 0 350.77 312.48
  L 348.36 316.17
  Z
  M 333.95 311.73
  L 330.35 321.91
  A 0.05 0.05 0.0 0 0 330.38 321.97
  L 330.43 321.99
  A 4.39 4.05 -70.5 0 0 335.72 319.20
  L 336.42 317.21
  A 4.39 4.05 -70.5 0 0 334.07 311.72
  L 334.02 311.69
  A 0.05 0.05 0.0 0 0 333.95 311.73
  Z
  M 367.8768 316.7681
  A 3.06 1.00 128.7 0 0 370.5704 315.0052
  A 3.06 1.00 128.7 0 0 371.7032 311.9919
  A 3.06 1.00 128.7 0 0 369.0096 313.7548
  A 3.06 1.00 128.7 0 0 367.8768 316.7681
  Z"
/>
<path fill="#bd2559" d="
  M 474.93 323.52
  Q 479.21 322.82 482.33 317.31
  Q 482.94 316.23 484.03 315.70
  Q 484.37 315.53 484.68 315.75
  A 0.54 0.53 -60.9 0 1 484.86 316.41
  C 483.44 319.68 477.18 328.67 473.01 326.27
  C 468.75 323.80 472.28 318.85 474.23 316.06
  Q 474.82 315.23 473.81 315.05
  L 472.04 314.74
  A 1.32 1.30 20.2 0 0 470.68 315.36
  L 464.79 325.30
  A 1.07 1.06 41.6 0 1 463.03 325.40
  L 462.64 324.89
  Q 462.22 324.36 461.63 324.67
  C 458.03 326.56 453.67 327.60 451.46 323.01
  A 0.90 0.90 0.0 0 0 449.94 322.86
  C 448.34 324.95 445.99 326.64 443.24 325.98
  C 441.41 325.54 440.74 323.24 440.13 321.68
  A 0.56 0.56 0.0 0 0 439.17 321.53
  Q 437.96 322.99 436.77 324.40
  C 435.09 326.37 430.67 327.04 429.40 324.19
  Q 428.84 322.91 428.54 321.62
  Q 428.35 320.84 427.70 321.31
  Q 425.30 323.06 422.92 324.82
  C 420.63 326.52 416.04 327.32 414.12 324.49
  C 410.86 319.66 413.33 314.33 417.08 310.76
  C 418.75 309.17 424.90 307.05 424.68 311.69
  C 424.50 315.58 420.27 317.74 417.61 320.07
  Q 415.73 321.71 418.02 322.72
  Q 418.27 322.82 418.54 322.87
  Q 421.17 323.37 423.07 321.99
  C 425.97 319.89 429.15 316.99 429.90 313.15
  Q 430.41 310.51 431.05 307.69
  A 0.53 0.53 0.0 0 0 430.54 307.04
  Q 427.95 307.00 425.39 305.90
  Q 424.83 305.66 424.73 305.06
  Q 424.62 304.42 425.05 303.99
  Q 425.43 303.62 425.97 303.65
  Q 428.52 303.76 430.90 303.48
  A 1.58 1.56 -81.5 0 0 432.17 302.53
  C 433.22 300.10 432.58 297.75 436.13 297.57
  A 1.17 1.16 89.6 0 1 437.35 298.78
  L 437.21 302.24
  A 0.67 0.67 0.0 0 0 437.88 302.94
  Q 440.37 302.95 442.59 303.67
  Q 443.30 303.89 443.58 303.21
  C 444.58 300.84 444.93 297.07 448.60 297.78
  Q 449.25 297.91 449.24 298.57
  L 449.20 302.42
  Q 449.19 302.92 449.69 302.93
  Q 452.46 303.01 455.58 304.04
  Q 456.12 304.23 456.29 304.77
  Q 456.48 305.36 455.99 305.81
  Q 455.60 306.17 455.08 306.15
  L 449.33 306.00
  A 1.39 1.39 0.0 0 0 447.96 307.00
  Q 446.21 313.06 443.72 318.23
  C 443.13 319.45 442.96 321.24 443.66 322.43
  A 1.65 1.65 0.0 0 0 445.97 322.98
  Q 447.89 321.74 449.40 320.04
  C 451.20 318.00 451.85 315.49 453.31 313.28
  Q 455.78 309.54 459.67 308.94
  C 463.01 308.43 463.80 311.67 462.35 314.12
  Q 461.13 316.19 456.06 319.79
  Q 454.32 321.02 455.77 322.60
  Q 455.96 322.81 456.24 322.87
  Q 459.21 323.53 461.55 322.03
  Q 467.60 318.17 468.10 311.46
  Q 468.30 308.66 470.41 307.15
  A 2.06 2.06 0.0 0 1 473.49 307.99
  Q 474.08 309.33 473.61 310.88
  Q 473.36 311.71 474.22 311.64
  C 477.77 311.37 478.79 314.69 477.24 317.36
  Q 475.58 320.23 474.39 322.82
  Q 474.00 323.67 474.93 323.52
  Z
  M 431.38 321.11
  A 1.66 1.66 0.0 0 0 434.01 322.91
  L 440.16 317.79
  A 1.66 1.66 0.0 0 0 440.71 316.91
  L 442.69 309.01
  A 1.66 1.66 0.0 0 0 441.45 306.99
  L 437.95 306.19
  A 1.66 1.66 0.0 0 0 436.00 307.29
  L 431.38 321.11
  Z
  M 417.2193 316.6668
  A 3.08 0.90 127.4 0 0 419.8050 314.7666
  A 3.08 0.90 127.4 0 0 420.9607 311.7732
  A 3.08 0.90 127.4 0 0 418.3750 313.6734
  A 3.08 0.90 127.4 0 0 417.2193 316.6668
  Z
  M 455.6417 316.8544
  A 3.11 0.90 125.1 0 0 458.1663 314.8275
  A 3.11 0.90 125.1 0 0 459.2183 311.7656
  A 3.11 0.90 125.1 0 0 456.6937 313.7925
  A 3.11 0.90 125.1 0 0 455.6417 316.8544
  Z"
/>
<path fill="#ffffff" d="
  M 400.59 300.93
  Q 401.40 298.07 404.29 298.77
  L 404.99 298.95
  Q 408.34 299.76 407.73 303.16
  Q 406.87 307.96 403.15 311.55
  Q 402.72 311.96 402.13 311.99
  L 397.98 312.23
  A 0.43 0.43 0.0 0 1 397.54 311.69
  L 400.59 300.93
  Z"
/>
<ellipse fill="#bd2559" cx="0.00" cy="0.00" transform="translate(250.34,302.25) rotate(121.1)" rx="2.50" ry="2.01"/>
<ellipse fill="#bd2559" cx="0.00" cy="0.00" transform="translate(225.84,302.27) rotate(124.3)" rx="2.57" ry="1.80"/>
<path fill="#ffffff" d="
  M 431.38 321.11
  L 436.00 307.29
  A 1.66 1.66 0.0 0 1 437.95 306.19
  L 441.45 306.99
  A 1.66 1.66 0.0 0 1 442.69 309.01
  L 440.71 316.91
  A 1.66 1.66 0.0 0 1 440.16 317.79
  L 434.01 322.91
  A 1.66 1.66 0.0 0 1 431.38 321.11
  Z"
/>
<path fill="#bd2559" d="
  M 234.24 315.62
  Q 229.91 321.99 225.24 325.26
  C 222.99 326.84 220.01 325.30 219.88 322.52
  Q 219.59 316.21 221.27 311.59
  Q 221.83 310.04 223.48 309.89
  L 224.98 309.76
  Q 226.76 309.61 226.01 311.22
  Q 223.63 316.34 222.78 322.18
  A 0.73 0.73 0.0 0 0 223.66 323.00
  Q 224.67 322.78 225.46 322.05
  C 228.13 319.61 232.49 315.72 232.82 312.50
  C 233.06 310.14 234.91 307.41 237.54 307.67
  A 1.70 1.70 0.0 0 1 238.74 310.38
  C 236.43 313.49 241.34 317.72 240.67 321.48
  C 240.23 323.92 236.07 328.30 232.98 326.32
  Q 229.33 323.97 231.99 320.73
  Q 233.18 319.27 234.05 320.94
  L 235.41 323.51
  A 0.74 0.74 0.0 0 0 236.66 323.59
  C 238.23 321.39 236.13 317.82 235.19 315.71
  Q 234.79 314.81 234.24 315.62
  Z"
/>
<path fill="#bd2559" d="
  M 282.00 322.12
  Q 281.59 323.98 283.15 322.89
  Q 286.73 320.39 289.55 315.48
  A 0.52 0.51 -62.1 0 1 290.22 315.27
  L 290.48 315.40
  A 0.79 0.78 -66.9 0 1 290.87 316.38
  Q 288.49 322.78 282.45 326.20
  C 279.98 327.60 277.37 325.09 277.97 322.48
  Q 278.82 318.73 279.62 315.21
  Q 280.26 312.40 277.80 313.90
  C 274.69 315.78 273.63 321.07 272.53 324.55
  A 2.07 2.06 -82.2 0 1 270.63 326.00
  L 269.69 326.03
  Q 268.55 326.07 268.84 324.96
  L 270.72 317.81
  Q 270.97 316.86 270.07 317.25
  L 267.45 318.40
  A 2.59 2.56 88.0 0 0 266.04 319.93
  C 264.72 323.82 261.90 326.34 257.61 326.11
  C 255.65 326.00 254.65 324.44 254.20 322.73
  A 0.63 0.63 0.0 0 0 253.14 322.45
  Q 251.54 324.08 249.71 325.23
  C 246.17 327.46 243.61 323.96 244.00 320.70
  Q 244.57 315.90 246.06 311.29
  Q 246.47 310.01 247.80 309.91
  L 249.25 309.81
  Q 250.85 309.69 250.26 311.18
  Q 248.22 316.28 247.31 321.31
  Q 246.89 323.64 249.02 322.60
  Q 249.90 322.17 250.76 321.53
  Q 252.80 320.00 253.67 317.60
  Q 254.69 314.77 256.38 312.11
  C 259.58 307.09 267.03 309.21 266.34 315.50
  Q 266.26 316.19 266.93 316.01
  Q 271.10 314.90 272.04 311.57
  A 2.36 2.36 0.0 0 1 275.52 310.18
  Q 276.93 311.03 278.45 310.26
  C 282.08 308.41 284.76 311.04 283.75 314.86
  Q 282.78 318.54 282.00 322.12
  Z
  M 261.33 317.32
  A 1.12 1.12 0.0 0 0 263.05 316.30
  L 262.83 313.24
  A 1.12 1.12 0.0 0 0 262.25 312.34
  L 261.62 312.00
  A 1.12 1.12 0.0 0 0 260.09 312.49
  L 259.02 314.65
  A 1.12 1.12 0.0 0 0 259.42 316.09
  L 261.33 317.32
  Z
  M 261.63 320.93
  L 257.72 318.63
  A 0.25 0.25 0.0 0 0 257.38 318.72
  L 257.30 318.86
  A 3.25 2.52 -59.6 0 0 257.82 322.94
  L 257.82 322.94
  A 3.25 2.52 -59.6 0 0 261.64 321.41
  L 261.72 321.27
  A 0.25 0.25 0.0 0 0 261.63 320.93
  Z"
/>
<path fill="#ffffff" d="
  M 348.36 316.17
  L 350.77 312.48
  A 1.56 1.56 0.0 0 1 353.60 313.02
  L 354.53 317.62
  A 1.56 1.56 0.0 0 1 354.01 319.12
  L 349.73 322.74
  A 1.56 1.56 0.0 0 1 347.19 321.23
  L 348.14 316.71
  A 1.56 1.56 0.0 0 1 348.36 316.17
  Z"
/>
<ellipse fill="#ffffff" cx="0.00" cy="0.00" transform="translate(419.09,314.22) rotate(127.4)" rx="3.08" ry="0.90"/>
<ellipse fill="#ffffff" cx="0.00" cy="0.00" transform="translate(457.43,314.31) rotate(125.1)" rx="3.11" ry="0.90"/>
<path fill="#ffffff" d="
  M 261.33 317.32
  L 259.42 316.09
  A 1.12 1.12 0.0 0 1 259.02 314.65
  L 260.09 312.49
  A 1.12 1.12 0.0 0 1 261.62 312.00
  L 262.25 312.34
  A 1.12 1.12 0.0 0 1 262.83 313.24
  L 263.05 316.30
  A 1.12 1.12 0.0 0 1 261.33 317.32
  Z"
/>
<path fill="#ffffff" d="
  M 333.95 311.73
  A 0.05 0.05 0.0 0 1 334.02 311.69
  L 334.07 311.72
  A 4.39 4.05 -70.5 0 1 336.42 317.21
  L 335.72 319.20
  A 4.39 4.05 -70.5 0 1 330.43 321.99
  L 330.38 321.97
  A 0.05 0.05 0.0 0 1 330.35 321.91
  L 333.95 311.73
  Z"
/>
<ellipse fill="#ffffff" cx="0.00" cy="0.00" transform="translate(369.79,314.38) rotate(128.7)" rx="3.06" ry="1.00"/>
<path fill="#ffffff" d="
  M 404.43 323.92
  Q 401.40 330.33 394.20 330.02
  A 0.68 0.67 -82.5 0 1 393.57 329.19
  L 396.30 317.06
  A 0.61 0.61 0.0 0 1 396.95 316.59
  Q 399.40 316.81 402.04 315.94
  A 2.28 2.28 0.0 0 1 404.86 317.22
  Q 406.15 320.29 404.43 323.92
  Z"
/>
<path fill="#ffffff" d="
  M 261.63 320.93
  A 0.25 0.25 0.0 0 1 261.72 321.27
  L 261.64 321.41
  A 3.25 2.52 -59.6 0 1 257.82 322.94
  L 257.82 322.94
  A 3.25 2.52 -59.6 0 1 257.30 318.86
  L 257.38 318.72
  A 0.25 0.25 0.0 0 1 257.72 318.63
  L 261.63 320.93
  Z"
/>
</svg>
