<svg width="40" height="40" viewBox="0 0 40 40" fill="none" xmlns="http://www.w3.org/2000/svg">
<path fill-rule="evenodd" clip-rule="evenodd" d="M32.5684 9.16667C33.4401 9.16667 34.1542 9.82167 34.2292 10.6908L36.5092 37.2867C36.5692 37.9825 36.3326 38.6767 35.8601 39.1908C35.3884 39.705 34.7167 40 34.0184 40H5.98256C5.28423 40 4.61256 39.705 4.14006 39.1908C3.66756 38.6767 3.43173 37.9825 3.49089 37.2867L5.77089 10.6908C5.84589 9.82167 6.56006 9.16667 7.43173 9.16667H12.5001V7.5C12.5001 3.365 15.8651 0 20.0001 0C24.1351 0 27.5001 3.365 27.5001 7.5V9.16667H32.5684ZM20.0001 1.66667C16.7834 1.66667 14.1667 4.28333 14.1667 7.5V9.16667H25.8334V7.5C25.8334 4.28333 23.2167 1.66667 20.0001 1.66667ZM7.43173 10.8333H12.5001V15H14.1667V10.8333H25.8334V15H27.5001V10.8333H32.5684L34.4251 32.5H5.57506L7.43173 10.8333ZM34.0176 38.3333C34.2534 38.3333 34.4717 38.2375 34.6317 38.0633C34.7917 37.8892 34.8684 37.6642 34.8484 37.4292L34.5684 34.1667H5.43173L5.15256 37.4283C5.13173 37.6642 5.20923 37.8892 5.36839 38.0633C5.52839 38.2375 5.74673 38.3333 5.98256 38.3333H34.0176Z" fill="black"/>
</svg>
